<svg xmlns="http://www.w3.org/2000/svg" width="139.792" height="144.175" viewBox="0 0 139.792 144.175"><g transform="translate(-134.001 -1551.933)"><path d="M23.378,0,46.757,22.148H0Z" transform="translate(273.793 1596.731) rotate(146)" fill="#9fecff"/><path d="M23.378,0,46.757,22.148H0Z" transform="translate(207.289 1696.109) rotate(-99)" fill="#fddf8f"/><path d="M19.992,1.716l2.46,7.573A2.485,2.485,0,0,0,24.814,11h7.963A2.483,2.483,0,0,1,34.235,15.5l-6.443,4.679a2.483,2.483,0,0,0-.9,2.776l2.46,7.573a2.482,2.482,0,0,1-3.82,2.774l-6.441-4.679a2.485,2.485,0,0,0-2.919,0L9.731,33.3a2.482,2.482,0,0,1-3.82-2.774l2.46-7.573a2.484,2.484,0,0,0-.9-2.776L1.027,15.5A2.483,2.483,0,0,1,2.486,11h7.963a2.485,2.485,0,0,0,2.362-1.715l2.46-7.573a2.481,2.481,0,0,1,4.721,0" transform="translate(150.893 1577.179) rotate(30)" fill="#ffa0a9"/><ellipse cx="7.383" cy="7.383" rx="7.383" ry="7.383" transform="translate(201.037 1551.933)" fill="#f8bffc"/></g></svg>