<svg xmlns="http://www.w3.org/2000/svg" width="397.694" height="72.222" viewBox="0 0 397.694 72.222"><g transform="translate(-879.5 -96.081)"><path d="M14.915,21.84V17.953c-1.99,2.575-5.381,4.583-7.017,4.583a1.663,1.663,0,0,1-1.7-1.493c0-.8.555-1.106,1.112-1.365a19.479,19.479,0,0,0,5.262-3.605H8.918c-.758,0-2.309,0-2.309-1.6,0-1.392,1.578-1.444,2.309-1.444h6v-.875c0-1.109,0-2.087,1.636-2.087,1.786,0,1.786.85,1.786,2.087v.875h5.935c1.17,0,2.429,0,2.429,1.52s-1.228,1.52-2.429,1.52H21.143A19.777,19.777,0,0,0,25.3,19.345c1.374.823,1.608,1.079,1.608,1.672a1.586,1.586,0,0,1-1.755,1.518c-2.048,0-5.877-3.811-6.813-5.021V21.84c0,1.082,0,2.087-1.639,2.087C14.915,23.928,14.915,23.053,14.915,21.84Zm21.762-.048V15.171c-1.17,1.161-1.579,1.161-1.929,1.161A1.715,1.715,0,0,1,32.9,14.887c0-.439.235-.667.789-1.285a32.507,32.507,0,0,0,4.591-7.163c.058-.152.293-.8.351-.927H35.741c-1.258,0-2.34,0-2.34-1.389,0-1.6.877-1.6,2.34-1.6h9.21c0-1.649,0-2.422,1.755-2.422,2.018,0,2.018.643,1.99,2.422h8.888c1.258,0,2.34,0,2.34,1.389,0,1.6-.877,1.6-2.34,1.6H48.373a1.3,1.3,0,0,1,.5,1.03,2.392,2.392,0,0,1-.061.491h5.673c1.844,0,4.3,0,4.3,2.858,0,2.267-1.929,6.518-5.089,9.223a20.062,20.062,0,0,0,4.885,1.569c.292.079,1.2.283,1.2,1.237a1.647,1.647,0,0,1-1.755,1.7A16.542,16.542,0,0,1,50.537,21.2c-2.456,1.313-5.47,2.371-7.251,2.371-.5,0-1.9,0-1.9-1.572,0-.926.528-1.081,2.02-1.52a26.042,26.042,0,0,0,4.208-1.465,18.391,18.391,0,0,1-3.538-4.3c-.643.594-1.49,1.417-2.248,1.417a2.041,2.041,0,0,1-1.67-.954v6.621c0,1.03-.173,2.06-1.84,2.06C36.734,23.851,36.676,22.926,36.676,21.792ZM46.387,12a14.034,14.034,0,0,0,4.18,5.174c4.007-3.062,4.561-6.514,4.561-6.745,0-.543-.32-.543-1.255-.543H47.7A19.43,19.43,0,0,1,46.387,12ZM41.941,6.518c0,.954-1.17,3.065-1.786,4.147V13.7c.058-.077.877-.823,1.054-1a18.38,18.38,0,0,0,4.007-6.106c.232-.667.321-.874.555-1.082h-4.3A1.074,1.074,0,0,1,41.941,6.518Zm170.891,15.3c0-.467.35-1.392,1.871-1.392.176,0,1.142.128,1.346.128.555,0,.789-.591.877-.95.2-.826.47-6.569.47-7.627,0-.591-.177-.591-1.289-.591H214.44a29.814,29.814,0,0,1-2.34,9.22c-.82,1.828-1.344,2.705-2.572,2.705a1.585,1.585,0,0,1-1.7-1.6,6.771,6.771,0,0,1,.905-2.191c2.486-5.046,2.486-9.065,2.486-13.288h-.789c-.847,0-2.34,0-2.34-1.521s1.493-1.548,2.34-1.548h2.955v-.9c0-1.338,0-2.056,1.929-2.056,1.64,0,1.64.927,1.64,2.056v.9H219.5c.847,0,2.337.028,2.337,1.548s-1.49,1.521-2.337,1.521h-4.826c0,.487-.03.95-.058,2.136H217.1c1.844,0,2.632,0,3.336.774A21.825,21.825,0,0,0,223.42,1.7c.146-.8.29-1.624,1.667-1.624A1.641,1.641,0,0,1,226.9,1.569a15.452,15.452,0,0,1-.381,2.318h6.228c1.581,0,2.34.076,2.34,1.7C235.087,6.9,233.917,7,233.332,7c-.235,3.373-.585,6.725-2.952,10.433a19.428,19.428,0,0,0,3.041,2.755c1.258.926,1.492,1.158,1.492,1.88A1.729,1.729,0,0,1,233.07,23.7c-1.493,0-3.568-1.983-4.884-3.528-1.813,1.776-4.327,3.425-5.558,3.425a1.586,1.586,0,0,1-1.783-1.493,1.872,1.872,0,0,1,1.054-1.572c2.717-1.88,3.01-2.087,4.149-3.321a31.312,31.312,0,0,1-2.571-6.079,2.152,2.152,0,0,1-1.639.823,1.905,1.905,0,0,1-.993-.2c-.2,9.092-.262,12-4.384,12C215.084,23.747,212.832,23.385,212.832,21.816Zm15.38-7.7A20.819,20.819,0,0,0,230.029,7h-4.3A28.852,28.852,0,0,0,228.213,14.113Zm12.173,7.831c0-.7.674-1.054.993-1.261,1.581-.927,2.017-1.158,3.159-1.88v-5.28c0-.591-.323-.747-.7-.747h-.7c-1.316,0-2.31,0-2.31-1.417,0-1.569,1.023-1.569,2.31-1.569H246.2c1.051,0,1.694.9,1.694,2.367v5.9c0,2.191,2.867,2.191,3.8,2.191h13.191c1.285,0,2.279,0,2.279,1.441,0,1.521-1.02,1.521-2.279,1.521h-14.8A6.329,6.329,0,0,1,246,21.532c-2.9,1.908-3.337,2.087-3.976,2.087A1.826,1.826,0,0,1,240.385,21.944Zm67.273-.336c0-1.237.993-1.469,1.639-1.621a20.4,20.4,0,0,0,8.6-3.815c-.612-.411-3.449-2.032-4-2.394-.762-.516-.908-.9-.908-1.338a1.842,1.842,0,0,1,1.871-1.78c1.259,0,4.038,1.8,5.647,2.809,1.2-1.652,2.4-3.892,2.4-5.719,0-.566-.149-.566-.877-.566h-8.687c-3.1,3.967-6.081,5.667-7.048,5.667a1.92,1.92,0,0,1-1.99-1.78c0-.77.528-1.131,1.142-1.542,3.83-2.6,4.62-4.1,6.814-8.142A1.868,1.868,0,0,1,313.975.256c.674,0,2.221.439,2.221,1.752,0,.387-.085.515-.728,1.8H323.3c2.367,0,3.656.978,3.656,2.806a16.213,16.213,0,0,1-3.336,9.068c2.136,1.621,2.371,1.8,2.371,2.626a1.786,1.786,0,0,1-1.9,1.776c-.759,0-.993-.152-3.014-1.7-3.565,3.066-9.823,5.177-11.432,5.177A1.885,1.885,0,0,1,307.659,21.609ZM.381,22.227A32.968,32.968,0,0,1,1.874,18.7c.232-.591,1.079-3.273,1.344-3.788a1.569,1.569,0,0,1,1.52-.847,1.589,1.589,0,0,1,1.7,1.492,20.289,20.289,0,0,1-2.282,6.567,2.1,2.1,0,0,1-2.048,1.365C.7,23.489.381,22.666.381,22.227Zm363.533-1.7V3.581c0-1.417,0-2.758,2.048-2.758,2.194,0,2.194,1.212,2.194,2.758V7.855a66.574,66.574,0,0,1,9.446,2.782c1.493.591,2.486,1.03,2.486,2.139a1.838,1.838,0,0,1-1.929,1.853c-.354,0-.47-.052-2.867-.978a53.381,53.381,0,0,0-7.136-2.191v9.068c0,1.392,0,2.73-2.017,2.73C363.914,23.257,363.914,22.072,363.914,20.527Zm-214-2.419c0-1.676,1.228-4.458,6.725-4.458a21.722,21.722,0,0,1,4.183.415l-.265-10.433C160.525,2.24,160.494.85,162.569.85c1.99,0,2.021,1.314,2.048,2.7l.058,2.989,4.973-.335c.877-.052.993-.076,1.258-.076,1.783,0,2.017,1.261,2.017,1.752,0,1.6-1.52,1.673-2.982,1.753l-5.2.28.116,5.384a33.2,33.2,0,0,1,6.813,2.965c.935.539,1.2,1.03,1.2,1.7a1.923,1.923,0,0,1-1.959,1.959c-.732,0-.993-.156-3.391-1.572a31.612,31.612,0,0,0-2.956-1.546c-.789,3.477-4.153,4.3-7.075,4.3C150.172,23.1,149.909,18.779,149.909,18.108Zm4.15.048c0,1.445,2.459,1.7,3.336,1.7,1.256,0,2.983-.566,3.13-2.243a9.6,9.6,0,0,0-3.8-.8C154.94,16.819,154.059,17.258,154.059,18.157Zm30.774,2.861a1.655,1.655,0,0,1,1.578-1.7c2.544-.487,5.439-1.03,7.194-3.553.851-1.237,1.258-2.37,1.258-6.414,0-.594-.058-3.3-.234-4.506-.058-.31-.232-1.548-.232-1.78,0-.977.874-1.7,2.191-1.7a1.876,1.876,0,0,1,1.578.823c.47.774.674,4.766.674,5.82,0,5.1-.146,8.784-3.976,11.9-2.748,2.24-7.455,2.962-8.071,2.962A1.8,1.8,0,0,1,184.834,21.017Zm109.89-.667a41.809,41.809,0,0,0-5.7-5.1c-5.177,4.687-11.173,7.161-12.693,7.161a1.962,1.962,0,0,1-1.96-1.932c0-1.162.847-1.469,1.639-1.728,10.555-3.5,14.65-11.124,14.65-12.9,0-.463-.234-.463-.935-.463h-10.03c-1.493,0-3.13,0-3.13-1.7s1.637-1.7,3.13-1.7h11.639c2.309,0,3.8.747,3.8,2.834,0,.566-.29,3.659-3.6,7.8a35.746,35.746,0,0,1,5.235,4.329c2.575,2.471,2.864,3.142,2.864,3.788,0,.975-1.109,1.725-2.133,1.725C296.684,22.462,296.626,22.411,294.724,20.35ZM125.272,18.029a1.751,1.751,0,0,1,1.872-1.7c.646,0,.966.1,2.078,1.081a5.148,5.148,0,0,0,3.861,1.417,3.821,3.821,0,0,0,4.18-3.784,3.615,3.615,0,0,0-3.946-3.608,4.316,4.316,0,0,0-3.275,1.313c-1.054.954-1.377,1.031-1.962,1.031-1.051,0-2.31-.7-2.191-1.9l.789-8.217a2.257,2.257,0,0,1,2.571-2.112h9.068A1.673,1.673,0,0,1,140.1,3.166a1.694,1.694,0,0,1-1.752,1.624h-7.255c-.585,0-.643.131-.7.567l-.439,3.991a6.3,6.3,0,0,1,4.092-1.158c4.65,0,7.109,3.3,7.109,6.8,0,3.733-2.721,7.316-8.19,7.316C128.225,22.307,125.272,19.573,125.272,18.029ZM88.715,19.936a2.728,2.728,0,0,1,5.408,0A2.568,2.568,0,0,1,91.4,22.307,2.538,2.538,0,0,1,88.715,19.936Zm300.687,0a2.728,2.728,0,0,1,5.408,0,2.566,2.566,0,0,1-2.721,2.371A2.536,2.536,0,0,1,389.4,19.933Zm-315.727.518V6.258l-2.486,1.88a2.021,2.021,0,0,1-1.2.335A1.7,1.7,0,0,1,68.09,6.8a1.651,1.651,0,0,1,.673-1.42L73.645,1.6A2.875,2.875,0,0,1,75.4,1.081c1.7,0,2.252.978,2.252,1.776V20.5a1.806,1.806,0,0,1-1.959,1.8A1.829,1.829,0,0,1,73.675,20.451Zm30.933,1.389c-1.228,0-2.633-.49-2.633-2.215,0-4.095,4.5-6.929,6.524-8.086,3.8-2.164,5.2-2.989,5.2-4.586,0-1.109-1.112-2.4-3.479-2.4-3.16,0-3.8,1.7-4.065,2.344a1.861,1.861,0,0,1-1.931,1.492,2.076,2.076,0,0,1-2.221-1.853c0-1.469,1.755-5.46,8.013-5.46,4.443,0,7.806,2.16,7.806,5.744,0,3.065-1.813,4.634-6.316,7.081-3.333,1.8-3.772,2.346-4.18,2.858a3.991,3.991,0,0,0-.82,1.7c0,.1.146.128.235.128h8.949c.351,0,2.164,0,2.164,1.572,0,.487-.2,1.672-2.164,1.672ZM248.9,17.773a1.406,1.406,0,0,1,.963-1.209c3.1-1.392,4.387-2.551,5.237-4.147h-4.241c-1.143,0-2.341,0-2.341-1.417s1.2-1.417,2.341-1.417h4.765v-2.5h-4.326c-1.082,0-2.34,0-2.34-1.392,0-1.414,1.258-1.414,2.34-1.414h1.666c-.466-.543-.935-1.081-1.432-1.624-.615-.722-.7-.8-.7-1.158,0-.851.935-1.469,1.844-1.469.82,0,1.139.386,2.194,1.569,1.258,1.445,1.4,1.6,1.4,2.06a.976.976,0,0,1-.174.621h2.867c.555-1.005,1.228-2.215,1.637-3.041C260.885.67,261.205,0,262.085,0c.174,0,1.929.259,1.929,1.5,0,.591-.146.823-1.316,2.782h1.17c1.082,0,2.341,0,2.341,1.414,0,1.392-1.258,1.392-2.341,1.392h-4.707v2.5h5.2c1.17,0,2.34,0,2.34,1.417s-1.17,1.417-2.34,1.417h-4.153a10.6,10.6,0,0,0,4.826,3.888c1.344.619,1.694.8,1.694,1.572a1.74,1.74,0,0,1-1.782,1.672c-1.17,0-5.235-2.215-7.34-5.1a12.364,12.364,0,0,1-7.017,5.153C249.215,19.6,248.9,18.133,248.9,17.773ZM390.95,15.3l-1.2-11.127c-.146-1.261.058-3.09,2.337-3.09,2.167,0,2.544,1.624,2.371,3.09L393.232,15.3c-.088.747-.408,1.212-1.142,1.212C391.389,16.511,391.038,16.07,390.95,15.3ZM179.1,8.809c0-1.673.2-5.46.585-6.335a1.808,1.808,0,0,1,1.725-1.032c1.639,0,2.31.825,2.31,1.7,0,.387-.381,2.084-.439,2.447a28.207,28.207,0,0,0-.232,3.193c0,.67.028,2.962.847,2.962.32,0,.439-.128,1.112-.874a1.5,1.5,0,0,1,1.082-.619,1.6,1.6,0,0,1,.613.1,1.57,1.57,0,0,1,1.227,1.545c0,1.209-2.425,3.784-4.969,3.784C179.218,15.686,179.1,10.844,179.1,8.809ZM48.111,12.6a1.05,1.05,0,0,1-.47-.877,1.722,1.722,0,0,1,1.67-1.517c.67,0,.963.232,1.752.9.793.643,2.164,1.776,2.164,2.471A1.759,1.759,0,0,1,51.3,15.095C50.772,15.095,49.778,14.141,48.111,12.6ZM336.8,13.833c-1.42,0-2.788,0-2.788-1.78s1.368-1.776,2.788-1.776H353.33c1.419,0,2.788,0,2.788,1.776s-1.369,1.78-2.788,1.78ZM1.286,9.994C.262,9.144,0,8.937,0,8.346A1.646,1.646,0,0,1,1.7,6.9c.436,0,.993.155,2.483,1.288,1.844,1.389,1.96,1.776,1.96,2.371A1.526,1.526,0,0,1,4.5,11.95C3.626,11.95,3.364,11.694,1.286,9.994Zm6.962-.259c0-.95.7-1.285,1.667-1.7,1.2-.539,2.513-1.285,2.836-4.171H11.728c-.732,0-.878.1-.878.823,0,.981,0,2.063-1.728,2.063-1.694,0-1.694-1.082-1.694-2.115V3.013c0-1.5,1.316-1.932,2.429-1.932H22.929c1.782,0,3.1.1,3.1,1.776v1.6c0,1.185,0,1.392-.555,1.828a1.175,1.175,0,0,1,.613,1.058c0,1.338-.585,3.272-2.983,3.272h-2.31c-.877,0-3.245,0-3.245-2.5V3.864H16.2c-.262,6.027-5.2,7.364-6.14,7.364A1.6,1.6,0,0,1,8.248,9.735ZM20.911,7.029c0,.594.174.7.582.7h.82c.292,0,.558,0,.762-.566a3.835,3.835,0,0,1,.262-.774c-.762-.256-.762-.619-.762-1.776,0-.643-.143-.747-.816-.747h-.847Zm67.8,1.755a2.728,2.728,0,0,1,5.408,0,2.587,2.587,0,0,1-2.721,2.4A2.557,2.557,0,0,1,88.715,8.784ZM243.164,4.945c-.558-.515-1.639-1.469-1.99-1.856a1.084,1.084,0,0,1-.234-.719c0-.774,1.085-1.521,1.871-1.521.85,0,2.108,1.082,3.043,1.908,1.637,1.492,1.756,1.88,1.756,2.394a1.791,1.791,0,0,1-1.756,1.621C245.151,6.773,244.977,6.594,243.164,4.945ZM1.725,4.275c-.816-.591-1.2-.85-1.2-1.469A1.558,1.558,0,0,1,2.194,1.289c.789,0,1.96.77,3.361,1.7A2.277,2.277,0,0,1,6.786,4.662a1.64,1.64,0,0,1-1.755,1.52C4.534,6.182,4.153,6.027,1.725,4.275Z" transform="translate(880 143.876)" fill="#f6ab00"/><path d="M16.7,24.428c-1.334,0-1.774-.474-1.988-.831a3.385,3.385,0,0,1-.294-1.756V19.293a15.626,15.626,0,0,1-2.874,2.339,7.742,7.742,0,0,1-3.643,1.4,2.165,2.165,0,0,1-2.2-1.993,1.974,1.974,0,0,1,1.4-1.818,18.191,18.191,0,0,0,4.153-2.652H8.918a4.261,4.261,0,0,1-1.63-.237,2.1,2.1,0,0,1-.411-.224,23.121,23.121,0,0,1-2.283,6.25,2.606,2.606,0,0,1-2.488,1.628,2.348,2.348,0,0,1-1.746-.616,1.654,1.654,0,0,1-.479-1.145,5.463,5.463,0,0,1,.671-1.786c.266-.569.567-1.215.859-1.929.083-.213.259-.737.446-1.291.429-1.274.745-2.2.916-2.535a2.063,2.063,0,0,1,1.966-1.121,2.339,2.339,0,0,1,1.42.46,1.75,1.75,0,0,1,1.152-1.26,4.557,4.557,0,0,1,1.609-.233h5.5v-.375a3.612,3.612,0,0,1,.263-1.695,1.908,1.908,0,0,1,1.872-.892,4.027,4.027,0,0,1,.853.081,3.136,3.136,0,0,1-.357-1.541V4.364h-.378A8,8,0,0,1,13.692,10.2a6.916,6.916,0,0,1-3.631,1.529A2.092,2.092,0,0,1,7.748,9.735c0-1.312,1.044-1.762,1.967-2.158a3.719,3.719,0,0,0,2.46-3.213h-.446a2.222,2.222,0,0,0-.36.019,1.82,1.82,0,0,0-.018.3c0,.958,0,2.563-2.228,2.563A1.98,1.98,0,0,1,7.2,6.313a2.166,2.166,0,0,1-.212-.656A2.257,2.257,0,0,1,5.031,6.682c-.657,0-1.1-.2-3.6-2l-.065-.047C.561,4.05.028,3.664.028,2.806A2.049,2.049,0,0,1,2.194.789c.945,0,2.133.785,3.637,1.78A3.845,3.845,0,0,1,6.928,3.6V3.013a2.19,2.19,0,0,1,1.03-1.949,3.61,3.61,0,0,1,1.9-.483H22.929c1.518,0,3.6,0,3.6,2.276v1.6c0,.923,0,1.385-.321,1.807a1.608,1.608,0,0,1,.379,1.078,4.391,4.391,0,0,1-.68,2.42,3.2,3.2,0,0,1-2.8,1.352h-2.31a5.414,5.414,0,0,1-2.081-.324,4.919,4.919,0,0,1,.126,1.369v.375h5.435a4.914,4.914,0,0,1,1.844.228A1.759,1.759,0,0,1,27.2,14.552a1.753,1.753,0,0,1-1.072,1.792,4.941,4.941,0,0,1-1.856.228h-1.9a20.485,20.485,0,0,0,3.183,2.345c1.341.8,1.849,1.192,1.849,2.1a2.071,2.071,0,0,1-2.255,2.018c-1.012,0-2.406-.731-4.143-2.172a26.584,26.584,0,0,1-2.17-2.026v3a3.59,3.59,0,0,1-.263,1.684A1.908,1.908,0,0,1,16.7,24.428Zm-1.283-7.94V21.84a2.8,2.8,0,0,0,.151,1.241c.052.086.209.347,1.132.347.8,0,.938-.27.992-.372a2.928,2.928,0,0,0,.147-1.215V16.05l.9,1.158c.959,1.241,4.655,4.827,6.417,4.827.862,0,1.255-.528,1.255-1.018,0-.293,0-.426-1.365-1.243a20.26,20.26,0,0,1-4.257-3.355l-.816-.847h4.3c1.494,0,1.929-.134,1.929-1.02s-.434-1.02-1.929-1.02H17.837V12.157a2.822,2.822,0,0,0-.15-1.247c-.051-.084-.206-.339-1.135-.339-1.084,0-1.136.381-1.136,1.587v1.375h-6.5c-1.594,0-1.809.477-1.809.944,0,.922.636,1.1,1.809,1.1h4.928l-.931.866a20.045,20.045,0,0,1-5.389,3.691c-.584.271-.826.457-.826.913a1.175,1.175,0,0,0,1.2.993c1.463,0,4.742-1.957,6.621-4.388ZM.881,22.233c0,.14.077.755,1.225.755.936,0,1.245-.437,1.609-1.1a20.039,20.039,0,0,0,2.221-6.327,1.1,1.1,0,0,0-1.2-.992,1.073,1.073,0,0,0-1.072.568l0,.007c-.149.289-.559,1.509-.859,2.4-.2.6-.373,1.109-.464,1.342l0,.006c-.3.738-.622,1.424-.879,1.976A9.562,9.562,0,0,0,.881,22.233ZM11.728,3.364H13.31l-.062.556c-.344,3.074-1.8,3.971-3.128,4.571l-.008,0c-1.057.454-1.364.672-1.364,1.241,0,.494.406.993,1.313.993a6,6,0,0,0,3.014-1.315A7.112,7.112,0,0,0,15.7,3.842l.021-.478h2.325V8.111a1.679,1.679,0,0,0,1,1.732,4.433,4.433,0,0,0,1.748.269H23.1A2.238,2.238,0,0,0,25.08,9.2a3.388,3.388,0,0,0,.5-1.855A.683.683,0,0,0,25.2,6.7l-.584-.381.549-.431c.363-.285.363-.285.363-1.435v-1.6c0-1.038-.486-1.276-2.6-1.276H9.857a2.605,2.605,0,0,0-1.364.328,1.2,1.2,0,0,0-.564,1.1V4.634c0,1.149.046,1.615,1.194,1.615,1.178,0,1.228-.479,1.228-1.563a1.338,1.338,0,0,1,.329-1.052A1.488,1.488,0,0,1,11.728,3.364ZM2.194,1.789A1.06,1.06,0,0,0,1.028,2.806c0,.321.14.448.926,1.017l.064.046C4.293,5.511,4.683,5.682,5.031,5.682a1.152,1.152,0,0,0,1.255-1.02c0-.29-.264-.773-1-1.257C4.079,2.61,2.838,1.789,2.194,1.789ZM38.316,24.351c-2.139,0-2.139-1.54-2.139-2.56V16.283a2.109,2.109,0,0,1-1.429.549A2.2,2.2,0,0,1,32.4,14.887c0-.6.3-.938.808-1.5l.125-.138a31.987,31.987,0,0,0,4.484-7l.076-.2.013-.036H35.741a5.016,5.016,0,0,1-1.83-.21A1.633,1.633,0,0,1,32.9,4.122a1.931,1.931,0,0,1,.9-1.845,4.456,4.456,0,0,1,1.941-.252h8.713C44.476.638,44.687-.4,46.706-.4a2.668,2.668,0,0,1,2.006.553A2.5,2.5,0,0,1,49.2,2.026h8.383a5.012,5.012,0,0,1,1.83.21,1.633,1.633,0,0,1,1.01,1.679,1.931,1.931,0,0,1-.9,1.845,4.453,4.453,0,0,1-1.94.252H49.293a1.911,1.911,0,0,1,.08.521h5.112a7.9,7.9,0,0,1,3.036.4A2.908,2.908,0,0,1,59.285,9.89c0,2.3-1.778,6.3-4.692,9.085a22.716,22.716,0,0,0,4.1,1.22l.054.014a2.55,2.55,0,0,1,.867.38,1.579,1.579,0,0,1,.666,1.33,2.145,2.145,0,0,1-2.255,2.2,16.964,16.964,0,0,1-7.5-2.352c-2.243,1.165-5.281,2.3-7.241,2.3a3.146,3.146,0,0,1-1.352-.245A1.855,1.855,0,0,1,40.884,22a1.486,1.486,0,0,1,.676-1.361,6.7,6.7,0,0,1,1.7-.639c1.978-.6,2.746-.836,3.46-1.134a19.559,19.559,0,0,1-2.763-3.371,3.55,3.55,0,0,1-2.134,1.133,2.365,2.365,0,0,1-1.17-.317v5.484A2.176,2.176,0,0,1,38.316,24.351ZM37.176,13.971v7.821A2.733,2.733,0,0,0,37.338,23c.055.1.2.352.978.352,1.146,0,1.34-.481,1.34-1.56V10.532l.065-.115c1.142-2.007,1.721-3.319,1.721-3.9a.6.6,0,0,0-.278-.613l-1.139-.893h17.56c1.548,0,1.84-.034,1.84-1.1,0-.756-.275-.889-1.84-.889h-9.4l.008-.508c.013-.8.022-1.437-.2-1.66A2.031,2.031,0,0,0,46.706.6c-.914,0-1.043.234-1.1.334a4.114,4.114,0,0,0-.158,1.589v.5h-9.71c-1.549,0-1.84.034-1.84,1.1,0,.756.275.889,1.84.889h3.668l-.318.706c-.035.077-.185.483-.257.678l-.082.221-.008.02a32.634,32.634,0,0,1-4.686,7.309l-.1.114c-.468.52-.551.628-.551.829,0,.494.641.945,1.344.945.246,0,.553,0,1.577-1.016Zm13.371,6.654.241.141a16.174,16.174,0,0,0,7.234,2.354,1.151,1.151,0,0,0,1.255-1.2c0-.444-.3-.614-.79-.744l-.027-.007a20.589,20.589,0,0,1-4.983-1.6l-.687-.333.58-.5c3.206-2.745,4.914-6.9,4.914-8.843,0-2.189-1.575-2.358-3.8-2.358H48.2l.119-.6a1.951,1.951,0,0,0,.052-.393.8.8,0,0,0-.3-.631L46.992,5.1l-.89.79c-.129.114-.186.215-.414.872l0,.009a18.789,18.789,0,0,1-4.127,6.291c-.091.092-.293.28-.506.479-.178.166-.444.414-.509.482l-.3.393.323.48a1.534,1.534,0,0,0,1.255.733c.525,0,1.3-.718,1.811-1.194l.566-.523.309.557a17.752,17.752,0,0,0,3.434,4.173l.558.5-.677.322a26.8,26.8,0,0,1-4.278,1.492c-1.6.471-1.665.552-1.665,1.042,0,.782.38,1.072,1.4,1.072A18.192,18.192,0,0,0,50.3,20.757ZM40.655,10.8v1.742c.088-.083.162-.153.2-.19l.015-.015a17.923,17.923,0,0,0,3.877-5.909c.054-.155.1-.291.148-.414H42.388a2.218,2.218,0,0,1,.053.506C42.441,7.293,41.89,8.615,40.655,10.8ZM216.461,24.247c-2,0-4.129-.639-4.129-2.431,0-.655.5-1.892,2.371-1.892.107,0,.32.023.686.063.232.026.581.064.66.064.24,0,.368-.474.392-.569.183-.741.455-6.381.455-7.508,0-.028,0-.052,0-.071-.158-.02-.466-.02-.788-.02h-1.214a30.242,30.242,0,0,1-2.334,8.92l0,0c-.813,1.813-1.463,3-3.028,3a2.078,2.078,0,0,1-2.2-2.1c0-.456.214-.91.957-2.412,2.337-4.743,2.431-8.57,2.434-12.566h-.289a4.547,4.547,0,0,1-1.672-.225,1.787,1.787,0,0,1-1.168-1.8,1.811,1.811,0,0,1,1.162-1.806,4.421,4.421,0,0,1,1.677-.241h2.455v-.4a3.131,3.131,0,0,1,.33-1.815,2.449,2.449,0,0,1,2.1-.741,1.927,1.927,0,0,1,1.873.864,3.486,3.486,0,0,1,.267,1.693v.4H219.5a4.415,4.415,0,0,1,1.677.242,1.752,1.752,0,0,1,1.085,1.2,24.406,24.406,0,0,0,.666-2.5V1.6c.147-.8.369-2.021,2.156-2.021A2.142,2.142,0,0,1,227.4,1.569a10.577,10.577,0,0,1-.264,1.818h5.611a4.1,4.1,0,0,1,2.011.307,2.026,2.026,0,0,1,.828,1.893A1.808,1.808,0,0,1,233.8,7.479a20.321,20.321,0,0,1-2.8,9.907,18.982,18.982,0,0,0,2.71,2.4l.007.005c1.259.926,1.694,1.3,1.694,2.281A2.219,2.219,0,0,1,233.07,24.2c-1.7,0-3.812-2.072-4.918-3.307-1.75,1.614-4.155,3.2-5.524,3.2a2.081,2.081,0,0,1-2.283-1.993q0-.048,0-.1C219.668,23.568,218.469,24.247,216.461,24.247ZM214.7,20.924c-1.331,0-1.37.8-1.37.892,0,.175,0,.706.98,1.088a6.442,6.442,0,0,0,2.149.343c1.856,0,2.688-.582,3.18-2.225.537-1.792.6-4.755.7-9.24l.019-.828.7.342a1.414,1.414,0,0,0,.774.153,1.651,1.651,0,0,0,1.238-.621l.576-.773.3.916a30.653,30.653,0,0,0,2.526,5.979l.19.321-.253.274a19.118,19.118,0,0,1-4.232,3.393l-.013.009a1.4,1.4,0,0,0-.826,1.152c0,.594.516.993,1.283.993,1.007,0,3.392-1.5,5.208-3.282l.383-.375.348.408c1.762,2.068,3.488,3.352,4.5,3.352.013,0,1.343-.031,1.343-1.124,0-.453-.036-.555-1.289-1.477l-.008-.006A19.273,19.273,0,0,1,230,17.764l-.243-.282.2-.314c2.247-3.52,2.631-6.7,2.875-10.2l.032-.465h.466c1.1,0,1.255-.441,1.255-.917,0-.839-.228-.97-.326-1.025a3.715,3.715,0,0,0-1.514-.175H225.9l.132-.606a12.93,12.93,0,0,0,.369-2.212c0-.481-.46-.993-1.313-.993-.953,0-1.027.4-1.173,1.2l0,.024a22.645,22.645,0,0,1-3.061,7.626l-.357.519-.424-.466c-.531-.584-1.095-.61-2.966-.61h-3l.012-.512c.013-.554.026-.949.037-1.266.012-.352.021-.606.021-.858v-.5H219.5c1.219,0,1.837-.158,1.837-1.021,0-.783-.464-1.048-1.837-1.048h-3.044v-1.4c0-1.164,0-1.556-1.14-1.556-.713,0-1.131.1-1.277.312a2.639,2.639,0,0,0-.152,1.245v1.4h-3.455c-1.375,0-1.84.264-1.84,1.048,0,.863.62,1.021,1.84,1.021h1.289v.5c0,4.3,0,8.358-2.538,13.509a8.574,8.574,0,0,0-.854,1.969,1.088,1.088,0,0,0,1.2,1.1c.841,0,1.237-.45,2.115-2.408a29.337,29.337,0,0,0,2.3-9.052l.044-.465h2.121a3.586,3.586,0,0,1,1.249.11.944.944,0,0,1,.541.981c0,.955-.255,6.817-.484,7.747-.207.845-.7,1.331-1.363,1.331-.124,0-.374-.027-.77-.07C215.064,20.958,214.769,20.925,214.7,20.924Zm6.628-8.5a44.774,44.774,0,0,1-.633,8.531,3.111,3.111,0,0,1,.925-.839,19.268,19.268,0,0,0,3.809-2.975,30.64,30.64,0,0,1-2.185-5.119,2.676,2.676,0,0,1-1.407.433A3.7,3.7,0,0,1,221.33,12.42Zm-6.2-4.55h1.97c1.56,0,2.482,0,3.234.519a16.454,16.454,0,0,0,1.046-1.975,2.206,2.206,0,0,1-.208.1,4.54,4.54,0,0,1-1.671.225h-4.335c0,.119-.008.248-.013.392C215.147,7.333,215.139,7.574,215.13,7.87Zm26.894,16.25a2.314,2.314,0,0,1-2.139-2.176,2,2,0,0,1,1.139-1.629l.083-.052.019-.012c.43-.252.776-.453,1.074-.626.725-.421,1.156-.671,1.838-1.1v-5c0-.247-.039-.247-.2-.247h-.7a4.8,4.8,0,0,1-1.846-.218,1.663,1.663,0,0,1-.964-1.7,1.819,1.819,0,0,1,.96-1.826,4.441,4.441,0,0,1,1.85-.244H246.2a2,2,0,0,1,1.858,1.21,1.592,1.592,0,0,1,1.007-1.2,4.9,4.9,0,0,1,1.785-.213h4.265v-1.5h-3.826a5,5,0,0,1-1.756-.208,1.66,1.66,0,0,1-1.084-1.685,1.671,1.671,0,0,1,1.082-1.7,4.93,4.93,0,0,1,1.759-.211h.57c-.222-.252-.46-.518-.705-.786l-.012-.013-.124-.146c-.523-.612-.7-.818-.7-1.336a2.221,2.221,0,0,1,2.344-1.969c1.02,0,1.476.512,2.477,1.634l.161.182c1.263,1.45,1.458,1.673,1.458,2.313q0,.063,0,.121h1.9l.028-.051c.512-.928,1.093-1.979,1.455-2.712l.027-.053A2.128,2.128,0,0,1,262.085-.5c.377,0,2.429.368,2.429,2,0,.628-.135.931-.936,2.282h.29a4.93,4.93,0,0,1,1.759.211,1.671,1.671,0,0,1,1.082,1.7,1.66,1.66,0,0,1-1.084,1.685,5,5,0,0,1-1.756.208h-4.207v1.5h4.7a4.927,4.927,0,0,1,1.8.213,1.667,1.667,0,0,1,1.044,1.7,1.667,1.667,0,0,1-1.044,1.7,4.927,4.927,0,0,1-1.8.213h-3.2a11.4,11.4,0,0,0,4.082,2.935c1.318.607,1.982.912,1.982,2.025a2.163,2.163,0,0,1-1.206,1.916,2.485,2.485,0,0,1,.689.178,1.689,1.689,0,0,1,.956,1.718,1.771,1.771,0,0,1-.958,1.785,4.445,4.445,0,0,1-1.82.236h-14.8a6.9,6.9,0,0,1-4.143-1.544C243.251,23.934,242.773,24.12,242.025,24.12Zm-.384-3.011-.084.053c-.354.222-.671.45-.671.782s.454,1.176,1.139,1.176c.5,0,.9-.156,3.7-2l.34-.224.288.288a5.8,5.8,0,0,0,3.738,1.53h14.8a3.9,3.9,0,0,0,1.4-.144c.122-.056.377-.174.377-.877,0-.86-.314-.941-1.779-.941H251.7a7.919,7.919,0,0,1-2.408-.3,2.451,2.451,0,0,1-1.895-2.392v-5.9c0-.438-.086-1.867-1.194-1.867h-3.071a3.9,3.9,0,0,0-1.424.149c-.125.059-.385.181-.385.921,0,.838.32.917,1.81.917h.7a1.126,1.126,0,0,1,1.2,1.247v5.555l-.233.147c-.84.531-1.315.807-2.1,1.265C242.407,20.661,242.065,20.86,241.64,21.109Zm10.242-1.362h11.834a14.523,14.523,0,0,1-2.356-1.246,16.855,16.855,0,0,1-3.709-3.188,12.679,12.679,0,0,1-3.682,3.354A14.45,14.45,0,0,1,251.882,19.747Zm-1.028-9.665c-1.426,0-1.84.12-1.84.917s.415.917,1.84.917h5.073l-.391.735c-.974,1.83-2.458,3.014-5.474,4.368l-.01,0a.935.935,0,0,0-.658.749c0,.013.108,1.329,1.2,1.329a12.09,12.09,0,0,0,6.584-4.9l.384-.666.453.621A15.055,15.055,0,0,0,261.9,17.66a8.376,8.376,0,0,0,3.049,1.389,1.247,1.247,0,0,0,1.282-1.172c0-.409,0-.472-1.4-1.118a11.069,11.069,0,0,1-5.048-4.088l-.443-.753h5.026c1.448,0,1.84-.114,1.84-.917s-.392-.917-1.84-.917h-5.7v-3.5h5.207c1.5,0,1.84-.167,1.84-.892,0-.743-.344-.914-1.84-.914h-2.051l.524-.878c1.073-1.8,1.173-1.975,1.173-2.4,0-.8-1.373-.989-1.437-1-.493,0-.689.284-1.016.92l-.022.043c-.373.753-.958,1.812-1.474,2.747l-.313.568h-4.106l.53-.781a.49.49,0,0,0,.087-.341c0-.25-.068-.343-1.212-1.656l-.153-.173c-.975-1.094-1.176-1.3-1.73-1.3-.634,0-1.344.414-1.344.969,0,.146,0,.149.459.686l.119.139c.548.6,1.056,1.185,1.437,1.63l.708.826h-2.754c-1.5,0-1.84.171-1.84.914,0,.726.344.892,1.84.892h4.826v3.5ZM248.4,17.861v.2a1.318,1.318,0,0,0,.361.956A2.883,2.883,0,0,1,248.4,17.861Zm0-5.638v5.449a1.94,1.94,0,0,1,1.26-1.567c2.594-1.165,3.8-2.132,4.546-3.189h-3.349a4.9,4.9,0,0,1-1.785-.213A1.653,1.653,0,0,1,248.4,12.223Zm61.25,11.842a2.364,2.364,0,0,1-1.959-.879,2.6,2.6,0,0,1-.531-1.577,2.146,2.146,0,0,1,2.02-2.107l.007,0a20.141,20.141,0,0,0,7.822-3.289c-.449-.27-1.048-.622-1.6-.946-.785-.461-1.526-.9-1.791-1.069l-.007,0a2.028,2.028,0,0,1-1.128-1.752,2.334,2.334,0,0,1,2.371-2.28c1.206,0,3.292,1.242,5.511,2.634.77-1.125,2.034-3.245,2.034-5.044,0-.023,0-.043,0-.061-.1-.005-.245-.005-.377-.005h-8.444c-3.1,3.907-6.12,5.667-7.29,5.667a2.423,2.423,0,0,1-2.49-2.28,2.322,2.322,0,0,1,1.365-1.957c3.693-2.509,4.482-3.965,6.593-7.856l.057-.1a2.327,2.327,0,0,1,2.165-1.4,3.464,3.464,0,0,1,1.615.451,2.05,2.05,0,0,1,1.107,1.8,2.569,2.569,0,0,1-.419,1.3H323.3a4.9,4.9,0,0,1,3.02.821,2.994,2.994,0,0,1,1.136,2.486,16.573,16.573,0,0,1-3.143,8.967c1.834,1.4,2.178,1.72,2.178,2.728a2.29,2.29,0,0,1-2.4,2.276c-.911,0-1.282-.246-3-1.56a25.318,25.318,0,0,1-6.272,3.56A17.9,17.9,0,0,1,309.648,24.065Zm4.518-10.7c.247.161.976.589,1.747,1.041.941.552,1.915,1.124,2.258,1.354l.574.385-.545.425a21.018,21.018,0,0,1-8.791,3.908c-.756.178-1.251.354-1.251,1.134a1.4,1.4,0,0,0,1.49,1.456c1.559,0,7.709-2.135,11.106-5.056l.308-.265.322.247c2.027,1.553,2.138,1.6,2.71,1.6a1.292,1.292,0,0,0,1.4-1.276c0-.535,0-.579-2.173-2.228l-.4-.3.3-.4a16.448,16.448,0,0,0,2.823-5.912,12.7,12.7,0,0,0,.413-2.857c0-1.53-1.062-2.306-3.156-2.306h-8.646l.361-.723.173-.346c.479-.956.5-1.014.5-1.234,0-1.034-1.438-1.252-1.721-1.252a1.364,1.364,0,0,0-1.28.862l0,.009-.059.108c-2.134,3.934-3.017,5.562-6.914,8.209-.657.439-.923.663-.923,1.128a1.432,1.432,0,0,0,1.49,1.28c.609,0,3.43-1.348,6.654-5.475l.15-.192h8.931c.708,0,1.378,0,1.378,1.067,0,2.323-1.743,4.979-2.493,6.013l-.274.378-.4-.248-.35-.22c-1.4-.878-4-2.514-5.031-2.514a1.354,1.354,0,0,0-1.371,1.28C313.481,12.644,313.481,12.9,314.166,13.362Zm51.972,10.4c-2.725,0-2.725-1.716-2.725-3.23V3.581a4.843,4.843,0,0,1,.309-2.134A2.239,2.239,0,0,1,365.962.323c2.694,0,2.694,1.731,2.694,3.258V7.447a68.747,68.747,0,0,1,9.126,2.723c1.445.572,2.807,1.111,2.807,2.606a2.339,2.339,0,0,1-2.429,2.353c-.43,0-.56-.05-2.723-.886l-.325-.125a53.961,53.961,0,0,0-6.456-2.029v8.44a4.81,4.81,0,0,1-.3,2.109A2.234,2.234,0,0,1,366.139,23.757Zm-.177-22.434c-1.485,0-1.548.692-1.548,2.258V20.527a3.837,3.837,0,0,0,.213,1.7c.13.229.428.533,1.512.533,1.455,0,1.517-.684,1.517-2.23V10.838l.607.134a53.521,53.521,0,0,1,7.206,2.211l.328.127c2.02.781,2.13.819,2.362.819a1.346,1.346,0,0,0,1.429-1.353c0-.738-.661-1.077-2.171-1.674a66.271,66.271,0,0,0-9.359-2.756l-.4-.08V3.581C367.655,2.03,367.655,1.323,365.962,1.323ZM157.484,23.6c-3.234,0-5.56-.816-6.913-2.425a4.929,4.929,0,0,1-1.163-3.072,4.394,4.394,0,0,1,1.465-3.227c1.262-1.149,3.2-1.731,5.76-1.731a21.7,21.7,0,0,1,3.668.314l-.25-9.83A3.5,3.5,0,0,1,160.677.99,2.519,2.519,0,0,1,162.569.35a2.254,2.254,0,0,1,2.2,1.1,4.8,4.8,0,0,1,.344,2.093l.048,2.464,4.45-.3c.4-.023.631-.041.8-.053.21-.015.325-.024.489-.024a2.427,2.427,0,0,1,2.077.893,2.333,2.333,0,0,1,.439,1.359,1.9,1.9,0,0,1-1.247,1.905,6.966,6.966,0,0,1-2.191.346h-.017l-4.721.254.1,4.539a34.006,34.006,0,0,1,6.568,2.9,2.346,2.346,0,0,1,1.453,2.132,2.433,2.433,0,0,1-2.459,2.459c-.867,0-1.182-.186-3.631-1.633l-.014-.008c-1.079-.626-1.782-.988-2.379-1.273a5.346,5.346,0,0,1-2.84,3.2A10.343,10.343,0,0,1,157.484,23.6Zm-.85-9.455c-4.589,0-6.225,2.045-6.225,3.958,0,.751.341,4.5,7.075,4.5a9.37,9.37,0,0,0,4.117-.8,4.42,4.42,0,0,0,2.47-3.117l.136-.6.56.257a32.1,32.1,0,0,1,3,1.567l.017.01c2.351,1.389,2.543,1.494,3.123,1.494a1.427,1.427,0,0,0,1.459-1.459c0-.392-.072-.758-.95-1.264a32.742,32.742,0,0,0-6.707-2.919l-.348-.1-.134-6.231,5.7-.307c1.733-.094,2.492-.241,2.492-1.252,0-.376-.148-1.252-1.517-1.252-.127,0-.218.007-.416.021-.175.013-.414.031-.813.054l-5.492.37-.068-3.513c-.03-1.534-.1-2.213-1.548-2.213a1.632,1.632,0,0,0-1.178.341,2.857,2.857,0,0,0-.339,1.924v.008l.281,11.048-.632-.118A21.22,21.22,0,0,0,156.634,14.15Zm30.159,9.223a2.3,2.3,0,0,1-2.459-2.356,2.16,2.16,0,0,1,1.988-2.192l.035-.007c2.441-.467,5.208-1,6.838-3.34.727-1.057,1.169-2,1.169-6.128,0-.581-.059-3.259-.228-4.426-.055-.3-.238-1.569-.238-1.86a2.016,2.016,0,0,1,.792-1.608,3.026,3.026,0,0,1,1.9-.589A2.38,2.38,0,0,1,198.6,1.933c.6.984.745,5.473.745,6.077a26.954,26.954,0,0,1-.568,6.822,10.1,10.1,0,0,1-3.592,5.467C192.39,22.572,187.607,23.373,186.793,23.373Zm9.8-21.505c-1.011,0-1.69.481-1.69,1.2,0,.173.159,1.344.223,1.688l0,.02c.179,1.233.239,3.957.239,4.578,0,4.055-.415,5.343-1.346,6.7-1.864,2.679-4.843,3.25-7.472,3.753l-.04.008c-.8.146-1.172.53-1.172,1.209a1.313,1.313,0,0,0,1.459,1.356c.415,0,5.066-.658,7.755-2.849a9.144,9.144,0,0,0,3.257-4.947,26.216,26.216,0,0,0,.535-6.566c0-1.524-.26-5-.6-5.561A1.389,1.389,0,0,0,196.589,1.868ZM297.5,22.962c-1.049,0-1.247-.215-3.147-2.273a41.319,41.319,0,0,0-5.306-4.793c-5.142,4.542-11.065,7.015-12.721,7.015a2.52,2.52,0,0,1-1.679-.663,2.373,2.373,0,0,1-.781-1.769c0-1.553,1.242-1.96,1.983-2.2a25.834,25.834,0,0,0,11.07-6.959c2.167-2.373,3.2-4.609,3.235-5.425-.113-.008-.281-.008-.434-.008h-10.03a7.058,7.058,0,0,1-2.293-.242,1.92,1.92,0,0,1-1.337-1.959A1.92,1.92,0,0,1,277.4,1.725a7.058,7.058,0,0,1,2.293-.242h11.639a5.366,5.366,0,0,1,3.046.72,2.949,2.949,0,0,1,1.253,2.614,8.662,8.662,0,0,1-.587,2.728,18.557,18.557,0,0,1-2.79,4.967,36.027,36.027,0,0,1,4.864,4.078c2.58,2.477,3.016,3.281,3.016,4.147A2.531,2.531,0,0,1,297.5,22.962Zm-8.51-8.359.33.246a42.582,42.582,0,0,1,5.772,5.166c1.8,1.948,1.8,1.948,2.409,1.948.739,0,1.633-.546,1.633-1.225,0-.451-.2-1.021-2.71-3.427a35.112,35.112,0,0,0-5.174-4.28l-.438-.3.333-.417c3.447-4.32,3.486-7.364,3.486-7.491,0-1.087-.375-2.334-3.3-2.334H279.694a6.42,6.42,0,0,0-1.957.183.927.927,0,0,0-.673,1.017.927.927,0,0,0,.673,1.017,6.42,6.42,0,0,0,1.957.183h10.03a2.532,2.532,0,0,1,.915.093.841.841,0,0,1,.52.87c0,1.15-1.2,3.629-3.5,6.143a26.836,26.836,0,0,1-11.495,7.235c-.882.289-1.3.507-1.3,1.253a1.467,1.467,0,0,0,1.46,1.432,14.957,14.957,0,0,0,4.746-1.767,36.3,36.3,0,0,0,7.611-5.264Zm-156.03,8.2c-4.924,0-8.191-2.876-8.191-4.778a2.193,2.193,0,0,1,.587-1.47,2.342,2.342,0,0,1,1.785-.73c.842,0,1.292.225,2.408,1.206l.005,0a4.66,4.66,0,0,0,3.525,1.288,3.571,3.571,0,0,0,2.941-1.215,3.453,3.453,0,0,0,.74-2.07,3.221,3.221,0,0,0-.718-2,3.355,3.355,0,0,0-2.729-1.111,3.811,3.811,0,0,0-2.936,1.18l0,0c-1.1.992-1.535,1.16-2.3,1.16a3,3,0,0,1-2.172-.905,1.966,1.966,0,0,1-.517-1.549l.789-8.216a2.729,2.729,0,0,1,.952-1.918,3.266,3.266,0,0,1,2.117-.646h9.068A2.181,2.181,0,0,1,140.6,3.166a2.2,2.2,0,0,1-2.252,2.124h-7.255a1.855,1.855,0,0,0-.187.008c-.005.029-.011.068-.018.12l-.327,2.972a8.524,8.524,0,0,1,9.145,1.543,7.3,7.3,0,0,1,1.948,5.058,7.575,7.575,0,0,1-2.191,5.411A8.943,8.943,0,0,1,132.963,22.807Zm-5.819-5.978a1.247,1.247,0,0,0-1.372,1.2c0,.523.577,1.466,1.844,2.3a9.808,9.808,0,0,0,5.347,1.477,7.971,7.971,0,0,0,5.792-2.112,6.582,6.582,0,0,0,1.9-4.7,6.3,6.3,0,0,0-1.674-4.371,6.589,6.589,0,0,0-4.935-1.93,5.851,5.851,0,0,0-3.766,1.041l-.943.653.56-5.092c.084-.634.307-1,1.2-1h7.255A1.207,1.207,0,0,0,139.6,3.166a1.18,1.18,0,0,0-1.283-1.121h-9.068c-1.278,0-1.957.544-2.074,1.664l-.789,8.213a.978.978,0,0,0,.263.78,2.027,2.027,0,0,0,1.431.577c.42,0,.63,0,1.624-.9a4.8,4.8,0,0,1,3.613-1.445,4.313,4.313,0,0,1,3.5,1.473,4.251,4.251,0,0,1,.948,2.635,4.451,4.451,0,0,1-.962,2.7,4.526,4.526,0,0,1-3.719,1.587,5.615,5.615,0,0,1-4.194-1.544C127.8,16.829,127.6,16.829,127.143,16.829ZM91.4,22.807a3.045,3.045,0,0,1-3.187-2.871,2.714,2.714,0,0,1,.967-2.064,3.372,3.372,0,0,1,2.22-.806,3.431,3.431,0,0,1,2.247.8,2.7,2.7,0,0,1,.974,2.066A3.065,3.065,0,0,1,91.4,22.807Zm0-4.741a2.05,2.05,0,0,0-2.187,1.871A2.05,2.05,0,0,0,91.4,21.807a2.071,2.071,0,0,0,2.221-1.871A2.046,2.046,0,0,0,91.4,18.065ZM392.089,22.8a3.363,3.363,0,0,1-2.233-.817,2.685,2.685,0,0,1,.014-4.117,3.375,3.375,0,0,1,2.219-.8,3.435,3.435,0,0,1,2.247.8,2.7,2.7,0,0,1,.975,2.064A3.065,3.065,0,0,1,392.089,22.8Zm0-4.738a2.049,2.049,0,0,0-2.187,1.867,2.05,2.05,0,0,0,2.187,1.871,2.071,2.071,0,0,0,2.221-1.871A2.045,2.045,0,0,0,392.089,18.065ZM75.692,22.8a2.334,2.334,0,0,1-2.518-2.353V7.263l-1.7,1.285a2.509,2.509,0,0,1-1.487.425A2.194,2.194,0,0,1,67.59,6.8,2.141,2.141,0,0,1,68.445,5l.012-.01L73.338,1.2A3.356,3.356,0,0,1,75.4.581c1.9,0,2.752,1.143,2.752,2.276V20.5A2.282,2.282,0,0,1,75.692,22.8ZM74.175,5.253v15.2A1.347,1.347,0,0,0,75.692,21.8a1.9,1.9,0,0,0,.92-.241,1.131,1.131,0,0,0,.539-1.06V2.858c0-.3-.126-1.276-1.752-1.276a2.384,2.384,0,0,0-1.446.408L69.076,5.771A1.158,1.158,0,0,0,68.59,6.8c0,.723.536,1.172,1.4,1.172a1.555,1.555,0,0,0,.907-.24ZM115.692,22.34H104.608c-1.933,0-3.133-1.04-3.133-2.715,0-3.077,2.28-5.944,6.775-8.52,3.763-2.143,4.952-2.881,4.952-4.152a1.616,1.616,0,0,0-.665-1.223,3.592,3.592,0,0,0-2.314-.672c-2.775,0-3.325,1.352-3.59,2l-.013.033a2.347,2.347,0,0,1-2.393,1.8,2.573,2.573,0,0,1-2.722-2.353,5.59,5.59,0,0,1,1.812-3.64,9.243,9.243,0,0,1,6.7-2.32,10.087,10.087,0,0,1,5.858,1.62,5.486,5.486,0,0,1,2.448,4.624,5.6,5.6,0,0,1-1.6,4.115,19.534,19.534,0,0,1-4.972,3.406c-3.246,1.756-3.663,2.273-4.026,2.727a4.492,4.492,0,0,0-.59,1.023h8.56c1.668,0,2.664.775,2.664,2.073C118.356,21.218,117.656,22.34,115.692,22.34ZM110.224,4.058a4.643,4.643,0,0,1,2.94.892,2.6,2.6,0,0,1,1.039,2,3.042,3.042,0,0,1-1.36,2.467,32.495,32.495,0,0,1-4.1,2.553,19.426,19.426,0,0,0-3.915,2.862,6.824,6.824,0,0,0-2.356,4.789,1.484,1.484,0,0,0,.634,1.339,2.741,2.741,0,0,0,1.5.376h11.084c1.375,0,1.664-.638,1.664-1.172a.885.885,0,0,0-.634-.911,2.919,2.919,0,0,0-1.029-.162h-8.949a.662.662,0,0,1-.735-.628,4.288,4.288,0,0,1,.924-2.009l0-.006c.443-.555.9-1.129,4.333-2.986a18.732,18.732,0,0,0,4.72-3.211,4.61,4.61,0,0,0,1.334-3.43A4.523,4.523,0,0,0,115.3,3.018a9.234,9.234,0,0,0-5.28-1.436,8.276,8.276,0,0,0-6.006,2.039,4.576,4.576,0,0,0-1.507,2.921c0,.923,1.027,1.353,1.722,1.353,1.021,0,1.233-.561,1.458-1.155l.022-.056C106,5.965,106.776,4.058,110.224,4.058ZM157.4,20.36c-1.425,0-3.836-.464-3.836-2.2A1.555,1.555,0,0,1,154.5,16.7a5.052,5.052,0,0,1,2.224-.385,10,10,0,0,1,3.926.81l.408.156-.033.376C160.86,19.525,159.084,20.36,157.4,20.36Zm-.673-3.041a4.219,4.219,0,0,0-1.776.279.568.568,0,0,0-.387.559c0,.909,1.911,1.2,2.836,1.2.835,0,2.222-.31,2.562-1.424A8.6,8.6,0,0,0,156.723,17.319ZM50.564,17.81l-.3-.237a14.45,14.45,0,0,1-4.314-5.332l-.145-.272.209-.3a18.8,18.8,0,0,0,1.25-2.02L47.4,9.39h6.472a3.729,3.729,0,0,1,1.141.1.9.9,0,0,1,.614.948,7.358,7.358,0,0,1-.831,2.536,13.477,13.477,0,0,1-3.926,4.607Zm-3.591-5.771a13.278,13.278,0,0,0,3.6,4.5,14.078,14.078,0,0,0,1.081-.966,3.073,3.073,0,0,1-.351.02c-.691,0-1.541-.788-3.233-2.359l-.289-.268a1.536,1.536,0,0,1-.633-1.178C47.08,11.883,47.023,11.966,46.973,12.039ZM49.312,10.7a1.23,1.23,0,0,0-1.17,1.017c0,.177.024.26.3.5l.01.009.295.273c.729.676,1.3,1.211,1.761,1.583.575.468.76.507.793.509.931,0,1.427-.593,1.427-1.021,0-.01-.007-.258-.642-.9a16.614,16.614,0,0,0-1.337-1.178l-.009-.007C49.946,10.81,49.784,10.7,49.312,10.7Zm2.071.017a7.833,7.833,0,0,1,2.227,2.344c.095-.164.179-.319.254-.465a7.015,7.015,0,0,0,.764-2.175v-.007a6.26,6.26,0,0,0-.755-.025H50.991C51.113,10.49,51.242,10.6,51.382,10.718Zm340.707,6.293c-.54,0-1.472-.215-1.636-1.656l-1.2-11.13a3.6,3.6,0,0,1,.654-2.8,2.78,2.78,0,0,1,2.181-.843,2.821,2.821,0,0,1,2.216.857,3.488,3.488,0,0,1,.651,2.792l-1.228,11.123C393.559,16.8,392.629,17.011,392.089,17.011Zm0-15.43a1.837,1.837,0,0,0-1.434.508,2.676,2.676,0,0,0-.406,2.025l1.2,11.131c.081.706.374.766.642.766.292,0,.562-.059.646-.771l1.228-11.123a2.646,2.646,0,0,0-.405-2.014A1.878,1.878,0,0,0,392.089,1.581Zm-209.126,14.6a3.894,3.894,0,0,1-3.808-3.015,13.943,13.943,0,0,1-.553-4.362c0-1.5.179-5.487.623-6.526A2.307,2.307,0,0,1,181.412.942c2.074,0,2.81,1.187,2.81,2.2a14.771,14.771,0,0,1-.323,1.9c-.055.272-.1.508-.121.614a27.807,27.807,0,0,0-.227,3.122c0,1.724.258,2.343.376,2.461l.018,0a5.012,5.012,0,0,0,.688-.7,1.916,1.916,0,0,1,1.459-.79,2.107,2.107,0,0,1,.787.135,2.083,2.083,0,0,1,1.553,2.013,4.305,4.305,0,0,1-1.7,2.725A6.035,6.035,0,0,1,182.963,16.186ZM181.412,1.942a1.323,1.323,0,0,0-1.26.716l-.006.015a29.9,29.9,0,0,0-.543,6.136,13.313,13.313,0,0,0,.5,4.041,2.9,2.9,0,0,0,2.861,2.336c2.3,0,4.469-2.39,4.469-3.284,0-.326-.093-.792-.893-1.073l-.018-.007a1.116,1.116,0,0,0-.428-.069.983.983,0,0,0-.7.44l-.012.013c-.7.778-.937,1.04-1.483,1.04-.63,0-1.042-.554-1.224-1.647a11.337,11.337,0,0,1-.123-1.814,28.918,28.918,0,0,1,.236-3.256l0-.016c.02-.123.068-.361.13-.663.106-.52.3-1.488.3-1.7C183.222,2.391,182.545,1.942,181.412,1.942Zm46.8,13.264-.448-.862a30.144,30.144,0,0,1-2.527-7.229L225.1,6.5h5.479l-.057.552a21.228,21.228,0,0,1-1.868,7.284ZM226.36,7.5a30.009,30.009,0,0,0,1.837,5.438A21.25,21.25,0,0,0,229.471,7.5Zm126.97,6.829H336.8a5.563,5.563,0,0,1-2.123-.263,1.977,1.977,0,0,1-1.165-2.017,1.974,1.974,0,0,1,1.165-2.014,5.571,5.571,0,0,1,2.123-.262H353.33a5.57,5.57,0,0,1,2.123.262,1.974,1.974,0,0,1,1.165,2.014,1.977,1.977,0,0,1-1.165,2.017A5.562,5.562,0,0,1,353.33,14.333ZM336.8,10.777c-1.66,0-2.288.11-2.288,1.276s.627,1.28,2.288,1.28H353.33c1.66,0,2.288-.11,2.288-1.28s-.627-1.276-2.288-1.276ZM4.5,12.45c-1.009,0-1.389-.311-3.214-1.807l-.374-.307C-.115,9.481-.5,9.161-.5,8.346A2.145,2.145,0,0,1,1.7,6.4c.592,0,1.264.233,2.786,1.391C6.328,9.182,6.64,9.7,6.64,10.561A2.011,2.011,0,0,1,4.5,12.45ZM1.7,7.4c-.554,0-1.2.412-1.2.944,0,.324.069.4,1.054,1.221l.051.043.318.26C3.8,11.406,3.907,11.45,4.5,11.45c.547,0,1.137-.34,1.137-.889,0-.374,0-.645-1.76-1.971C2.507,7.545,2.02,7.4,1.7,7.4ZM91.4,11.68a3.055,3.055,0,0,1-3.187-2.9,3.224,3.224,0,0,1,6.408,0A3.075,3.075,0,0,1,91.4,11.68Zm0-4.766a2.05,2.05,0,0,0-2.187,1.871,2.059,2.059,0,0,0,2.187,1.9,2.106,2.106,0,0,0,2.221-1.9A2.071,2.071,0,0,0,91.4,6.914ZM22.313,8.227h-.82c-.738,0-1.082-.38-1.082-1.2V3.364h1.347a1.438,1.438,0,0,1,.992.258,1.238,1.238,0,0,1,.324.989c0,1.161.016,1.166.421,1.3l.7.236-.454.532a4.674,4.674,0,0,0-.184.6l-.014.046A1.151,1.151,0,0,1,22.313,8.227Zm-.891-1,.071,0h.82a.872.872,0,0,0,.174-.01.564.564,0,0,0,.11-.206c.038-.146.073-.269.1-.372-.626-.406-.626-1.058-.626-2.029a1.749,1.749,0,0,0-.012-.232,2.226,2.226,0,0,0-.3-.015h-.347V7.029A1.432,1.432,0,0,0,21.422,7.225Zm224.432.048c-.875,0-1.177-.275-2.858-1.8l-.169-.154c-.152-.141-.343-.313-.544-.5-.566-.513-1.207-1.094-1.479-1.394l-.011-.012a1.562,1.562,0,0,1-.353-1.042A2.447,2.447,0,0,1,242.811.35c.989,0,2.209,1,3.374,2.033l.006.005c1.629,1.485,1.919,2.015,1.919,2.764A2.291,2.291,0,0,1,245.854,7.273Zm-4.3-4.512c.244.267.886.849,1.4,1.317.2.184.4.358.549.5l.167.151c1.633,1.486,1.715,1.544,2.185,1.544.426,0,1.256-.4,1.256-1.121,0-.307,0-.573-1.591-2.023-.657-.58-2.016-1.779-2.708-1.779-.576,0-1.371.592-1.371,1.021A.6.6,0,0,0,241.551,2.761Z" transform="translate(880 143.876)" fill="rgba(0,0,0,0)"/><path d="M32.029,18.025C32.029,9.232,34.562,0,45.771,0,56.786,0,59.464,8.97,59.464,18.025c0,9.275-2.779,18.026-13.693,18.026C35.006,36.052,32.029,27.52,32.029,18.025Zm7,0c0,7.176,1.588,12.118,6.746,12.118,5.009,0,6.746-4.681,6.746-12.118,0-7.218-1.636-12.121-6.746-12.121S39.025,10.808,39.025,18.025ZM272.741,32.9V8.793l-4.217,3.193a3.4,3.4,0,0,1-2.032.57c-1.987,0-3.227-1.183-3.227-2.846A2.8,2.8,0,0,1,264.4,7.3L272.689.875A4.878,4.878,0,0,1,275.666,0c2.879,0,3.821,1.661,3.821,3.019V32.986a3.067,3.067,0,0,1-3.324,3.062A3.106,3.106,0,0,1,272.741,32.9Zm-81.716.177c0-7.044,5.307-15.01,9.028-20.125,2.032-2.8,2.48-3.809,2.48-5.338,0-1.051-.3-1.314-1.983-1.314h-9.674c-1.24,0-1.539.744-1.539,2.539v1.88c0,2.669-1.886,3.066-3.126,3.066-1.438,0-3.422-.7-3.422-2.889V5.512c0-2.626,1.486-4.725,5.009-4.725h16.024c5.409,0,5.457,3.105,5.457,4.814,0,4.241-1.192,6.6-3.72,10.235-6.1,8.793-6.3,9.756-7.59,17.151a3.1,3.1,0,0,1-3.276,3.062C194.5,36.048,191.025,36.048,191.025,33.075ZM101.3,35.262c-2.084,0-4.464-.832-4.464-3.762,0-6.957,7.638-11.768,11.06-13.739,6.45-3.674,8.83-5.073,8.83-7.784,0-1.884-1.883-4.071-5.9-4.071-5.356,0-6.45,2.889-6.9,3.983-.4,1.05-.945,2.538-3.276,2.538-1.736,0-3.768-1.14-3.768-3.151C96.89,6.783,99.866,0,110.482,0c7.541,0,13.245,3.675,13.245,9.756,0,5.2-3.074,7.873-10.716,12.032-5.655,3.062-6.4,3.98-7.093,4.853a6.833,6.833,0,0,0-1.389,2.889c0,.173.25.22.4.22H120.1c.6,0,3.672,0,3.672,2.669,0,.828-.348,2.842-3.672,2.842Zm-32.279,0c-2.085,0-4.464-.832-4.464-3.762,0-6.957,7.638-11.768,11.06-13.739,6.45-3.674,8.83-5.073,8.83-7.784,0-1.884-1.883-4.071-5.9-4.071-5.357,0-6.45,2.889-6.9,3.983-.4,1.05-.945,2.538-3.276,2.538-1.737,0-3.769-1.14-3.769-3.151C64.61,6.783,67.587,0,78.2,0c7.541,0,13.245,3.675,13.245,9.756,0,5.2-3.074,7.873-10.716,12.032-5.656,3.062-6.4,3.98-7.093,4.853a6.833,6.833,0,0,0-1.389,2.889c0,.173.25.22.4.22h15.18c.6,0,3.672,0,3.672,2.669,0,.828-.348,2.842-3.672,2.842Zm-64.562,0C2.38,35.262,0,34.431,0,31.5,0,24.543,7.639,19.732,11.061,17.76c6.45-3.674,8.829-5.073,8.829-7.784,0-1.884-1.883-4.071-5.9-4.071-5.356,0-6.45,2.889-6.9,3.983-.4,1.05-.944,2.538-3.275,2.538-1.737,0-3.769-1.14-3.769-3.151C.049,6.783,3.026,0,13.642,0c7.541,0,13.245,3.675,13.245,9.756,0,5.2-3.075,7.873-10.717,12.032-5.655,3.062-6.4,3.98-7.093,4.853a6.833,6.833,0,0,0-1.389,2.889c0,.173.251.22.4.22h15.18c.6,0,3.672,0,3.672,2.669,0,.828-.347,2.842-3.672,2.842Z" transform="translate(880.908 96.581)" fill="#e7316e"/><path d="M13.642-.5a20.3,20.3,0,0,1,5.384.687,13.865,13.865,0,0,1,4.356,2,8.984,8.984,0,0,1,4.005,7.567c0,5.559-3.387,8.34-10.978,12.472-5.582,3.022-6.275,3.888-6.938,4.722a7.578,7.578,0,0,0-1.221,2.3H23.263c2.651,0,4.172,1.155,4.172,3.169,0,.784-.3,3.342-4.172,3.342H4.464A6,6,0,0,1,1.172,34.9,3.876,3.876,0,0,1-.5,31.5c0-3.141,1.479-6.2,4.4-9.094a34.5,34.5,0,0,1,6.916-5.078,54.714,54.714,0,0,0,6.766-4.207c1.3-1.069,1.813-1.95,1.813-3.144a3.093,3.093,0,0,0-1.257-2.352A6.421,6.421,0,0,0,13.988,6.4c-4.944,0-5.973,2.539-6.412,3.624l-.025.064a3.643,3.643,0,0,1-3.732,2.834,4.858,4.858,0,0,1-2.833-.919A3.355,3.355,0,0,1-.451,9.275,9.136,9.136,0,0,1,2.516,3.344,12.655,12.655,0,0,1,6.861.631,19.045,19.045,0,0,1,13.642-.5Zm9.622,35.262c2.76,0,3.172-1.468,3.172-2.342a1.854,1.854,0,0,0-1.3-1.871,5.286,5.286,0,0,0-1.876-.3H8.084c-.528,0-.9-.3-.9-.72A7.159,7.159,0,0,1,8.68,26.337l.005-.007c.727-.914,1.479-1.858,7.246-4.982,4.227-2.3,6.573-3.9,8.1-5.527a8.264,8.264,0,0,0,2.357-6.066A8.021,8.021,0,0,0,22.8,3.006,16,16,0,0,0,13.642.5C8.06.5,4.889,2.437,3.212,4.062A8.219,8.219,0,0,0,.549,9.275c0,1.637,1.7,2.651,3.269,2.651,1.966,0,2.408-1.163,2.8-2.189l.033-.084C7.12,8.491,8.371,5.4,13.988,5.4a7.526,7.526,0,0,1,4.771,1.44A4.083,4.083,0,0,1,20.39,9.976c0,3.045-2.659,4.559-9.082,8.219A33.531,33.531,0,0,0,4.6,23.115C1.879,25.814.5,28.635.5,31.5a2.884,2.884,0,0,0,1.229,2.565,5.023,5.023,0,0,0,2.735.7ZM45.771-.5c5.21,0,9.047,1.971,11.4,5.858,1.85,3.051,2.789,7.313,2.789,12.668,0,5.412-.951,9.7-2.828,12.753-2.356,3.831-6.18,5.773-11.365,5.773-5.143,0-8.956-1.913-11.331-5.686-1.932-3.068-2.911-7.388-2.911-12.84,0-5.3.921-9.523,2.738-12.567C36.628,1.5,40.5-.5,45.771-.5Zm0,36.052A13.63,13.63,0,0,0,52.278,34.1a10.554,10.554,0,0,0,4.006-3.844c1.778-2.89,2.68-7,2.68-12.229,0-5.169-.889-9.257-2.644-12.149a10.615,10.615,0,0,0-4-3.894A13.548,13.548,0,0,0,45.771.5a13.586,13.586,0,0,0-6.634,1.517,10.678,10.678,0,0,0-4.011,3.954c-1.723,2.886-2.6,6.941-2.6,12.054,0,5.26.928,9.4,2.757,12.307a10.593,10.593,0,0,0,4.03,3.8A13.7,13.7,0,0,0,45.771,35.552ZM78.2-.5a20.3,20.3,0,0,1,5.384.687,13.864,13.864,0,0,1,4.356,2,8.984,8.984,0,0,1,4.005,7.567c0,5.559-3.386,8.34-10.977,12.472-5.582,3.022-6.275,3.888-6.938,4.721a7.578,7.578,0,0,0-1.222,2.3H87.825c2.651,0,4.171,1.155,4.171,3.169,0,.784-.3,3.342-4.171,3.342h-18.8a6,6,0,0,1-3.292-.867,3.876,3.876,0,0,1-1.671-3.4c0-3.141,1.479-6.2,4.395-9.094a34.489,34.489,0,0,1,6.916-5.078,54.708,54.708,0,0,0,6.767-4.207c1.3-1.069,1.813-1.95,1.813-3.144A3.093,3.093,0,0,0,82.7,7.624,6.421,6.421,0,0,0,78.55,6.4c-4.944,0-5.973,2.539-6.412,3.623l-.026.066a3.644,3.644,0,0,1-3.732,2.832,4.858,4.858,0,0,1-2.833-.919A3.355,3.355,0,0,1,64.11,9.275a9.136,9.136,0,0,1,2.968-5.931A12.655,12.655,0,0,1,71.423.631,19.045,19.045,0,0,1,78.2-.5Zm9.623,35.262c2.759,0,3.171-1.468,3.171-2.342a1.854,1.854,0,0,0-1.3-1.871,5.286,5.286,0,0,0-1.876-.3H72.645c-.527,0-.9-.3-.9-.72a7.158,7.158,0,0,1,1.493-3.193l.005-.006c.726-.913,1.476-1.858,7.247-4.982,4.227-2.3,6.573-3.9,8.1-5.527a8.264,8.264,0,0,0,2.357-6.066,8.021,8.021,0,0,0-3.584-6.751A16,16,0,0,0,78.2.5C72.621.5,69.45,2.437,67.774,4.062A8.219,8.219,0,0,0,65.11,9.275c0,1.637,1.7,2.651,3.269,2.651,1.965,0,2.408-1.162,2.8-2.187l.034-.086C71.682,8.49,72.933,5.4,78.55,5.4a7.526,7.526,0,0,1,4.771,1.44,4.083,4.083,0,0,1,1.631,3.132c0,3.045-2.659,4.56-9.083,8.219a33.523,33.523,0,0,0-6.708,4.921c-2.72,2.7-4.1,5.519-4.1,8.384a2.884,2.884,0,0,0,1.229,2.565,5.023,5.023,0,0,0,2.735.7ZM110.482-.5a20.3,20.3,0,0,1,5.384.687,13.864,13.864,0,0,1,4.356,2,8.984,8.984,0,0,1,4.005,7.567c0,5.559-3.386,8.34-10.977,12.472-5.581,3.022-6.275,3.888-6.938,4.722a7.578,7.578,0,0,0-1.221,2.3H120.1c2.651,0,4.171,1.155,4.171,3.169,0,.784-.3,3.342-4.171,3.342H101.3a6,6,0,0,1-3.292-.867,3.876,3.876,0,0,1-1.672-3.4c0-3.141,1.479-6.2,4.395-9.094a34.489,34.489,0,0,1,6.916-5.078,54.709,54.709,0,0,0,6.767-4.207c1.3-1.069,1.813-1.95,1.813-3.144a3.094,3.094,0,0,0-1.257-2.352A6.421,6.421,0,0,0,110.829,6.4c-4.944,0-5.973,2.539-6.412,3.624l-.025.063a3.645,3.645,0,0,1-3.734,2.835,4.857,4.857,0,0,1-2.833-.919A3.355,3.355,0,0,1,96.39,9.275a9.137,9.137,0,0,1,2.967-5.931A12.653,12.653,0,0,1,103.7.631,19.043,19.043,0,0,1,110.482-.5ZM120.1,34.762c2.759,0,3.171-1.468,3.171-2.342a1.854,1.854,0,0,0-1.3-1.871,5.286,5.286,0,0,0-1.876-.3h-15.18c-.528,0-.9-.3-.9-.72a7.159,7.159,0,0,1,1.493-3.193l.005-.007c.727-.914,1.479-1.858,7.246-4.982,4.227-2.3,6.573-3.9,8.1-5.527a8.264,8.264,0,0,0,2.357-6.066,8.021,8.021,0,0,0-3.584-6.751A16,16,0,0,0,110.482.5a18.053,18.053,0,0,0-6.424,1.066,11.659,11.659,0,0,0-4,2.5A8.219,8.219,0,0,0,97.39,9.275c0,1.637,1.7,2.651,3.269,2.651,1.967,0,2.409-1.163,2.8-2.19l.033-.083c.471-1.162,1.722-4.248,7.339-4.248a7.526,7.526,0,0,1,4.771,1.44,4.083,4.083,0,0,1,1.631,3.132c0,3.045-2.659,4.56-9.083,8.219a33.522,33.522,0,0,0-6.708,4.921c-2.72,2.7-4.1,5.519-4.1,8.384a2.884,2.884,0,0,0,1.229,2.565,5.023,5.023,0,0,0,2.735.7ZM275.666-.5A4.589,4.589,0,0,1,279.006.644a3.3,3.3,0,0,1,.98,2.376V32.986a3.544,3.544,0,0,1-3.824,3.562,3.591,3.591,0,0,1-3.922-3.651V9.8l-3.429,2.6a3.893,3.893,0,0,1-2.32.661,3.937,3.937,0,0,1-2.693-.928,3.2,3.2,0,0,1-1.034-2.418,3.313,3.313,0,0,1,1.321-2.793l.012-.01L272.383.48A5.349,5.349,0,0,1,275.666-.5Zm.5,36.048a3.591,3.591,0,0,0,1.739-.459,2.275,2.275,0,0,0,1.085-2.1V3.019c0-1.218-.872-2.519-3.321-2.519A4.377,4.377,0,0,0,273,1.267l-8.281,6.426a2.313,2.313,0,0,0-.953,2.018c0,1.425,1.07,2.346,2.727,2.346a2.938,2.938,0,0,0,1.737-.474l5.011-3.8V32.9a2.51,2.51,0,0,0,.8,1.94A3.126,3.126,0,0,0,276.162,35.548ZM187.8.286h16.024c2.515,0,4.254.666,5.167,1.981a5.687,5.687,0,0,1,.79,3.333c0,4.319-1.175,6.736-3.81,10.521-6.078,8.757-6.242,9.691-7.507,16.946a4.783,4.783,0,0,1-.756,2.1,3.463,3.463,0,0,1-3.013,1.38,5.81,5.81,0,0,1-2.1-.41,3.127,3.127,0,0,1-2.068-3.064c0-3.182,1.068-6.887,3.173-11.013a72.942,72.942,0,0,1,5.95-9.406c2.056-2.833,2.385-3.7,2.385-5.044,0-.54-.094-.605-.144-.64A3.26,3.26,0,0,0,200.55,6.8h-9.674c-.663,0-1.039.095-1.039,2.039v1.88a3.337,3.337,0,0,1-1.314,2.945,4,4,0,0,1-2.312.621,4.671,4.671,0,0,1-2.527-.708,3.072,3.072,0,0,1-1.395-2.681V5.512a5.225,5.225,0,0,1,1.321-3.692A5.531,5.531,0,0,1,187.8.286Zm6.9,35.262c2.091,0,2.579-1.334,2.782-2.639l0-.009a34.758,34.758,0,0,1,2.023-8.162c1.008-2.344,2.624-4.83,5.649-9.188,2.511-3.607,3.631-5.9,3.631-9.95a4.776,4.776,0,0,0-.611-2.762c-.716-1.03-2.178-1.552-4.346-1.552H187.8a4.583,4.583,0,0,0-3.463,1.223,4.251,4.251,0,0,0-1.046,3v5.381c0,2.322,2.623,2.389,2.922,2.389,1.767,0,2.626-.839,2.626-2.566V8.836A4.513,4.513,0,0,1,189.2,6.65a1.737,1.737,0,0,1,1.671-.852h9.674a3.411,3.411,0,0,1,1.908.351,1.612,1.612,0,0,1,.576,1.463c0,1.674-.506,2.779-2.576,5.632a72,72,0,0,0-5.868,9.272c-2.033,3.984-3.064,7.536-3.064,10.559a2.14,2.14,0,0,0,1.452,2.14A4.84,4.84,0,0,0,194.693,35.548ZM45.771,5.4a6.009,6.009,0,0,1,5.738,3.633c1.015,2.061,1.508,5,1.508,8.988,0,4.043-.506,7.011-1.548,9.074a6.358,6.358,0,0,1-11.454-.1c-1-2.052-1.489-4.986-1.489-8.969s.493-6.927,1.508-8.988A6.009,6.009,0,0,1,45.771,5.4Zm0,24.239a5,5,0,0,0,4.805-3c.969-1.92,1.441-4.74,1.441-8.623C52.017,10.1,50.032,6.4,45.771,6.4S39.525,10.1,39.525,18.025c0,3.828.454,6.619,1.388,8.531A5.02,5.02,0,0,0,45.771,29.644Z" transform="translate(880.908 96.581)" fill="rgba(0,0,0,0)"/><path d="M84.254,30.2c0-.451.159-.762,1.3-3.671,1.536-3.812,1.536-9.251,1.536-12.4V4.884a3.376,3.376,0,0,1,3.656-3.638h19.785c2.989,0,4.091,1.627,4.091,3.22V27.779c0,4.294-4.561,4.294-5.859,4.294a22.061,22.061,0,0,1-5.7-.692,1.646,1.646,0,0,1-1.179-1.7,2.072,2.072,0,0,1,2.239-2.148c.71,0,3.7.381,4.291.381.941,0,1.532-.24,1.532-1.246V21.094H91.609c-.313,3.428-1.453,8.035-2.556,9.663a2.328,2.328,0,0,1-2.2,1.353C85.671,32.109,84.254,31.347,84.254,30.2Zm7.593-16c0,.762,0,2.215-.04,2.874h18.132V13.023H91.847Zm0-8.1V9.144h18.092V6.2c0-.972-.353-1.005-1.219-1.005H92.633C91.847,5.2,91.847,5.716,91.847,6.1Zm-73.2,23.065V23.727H3.147C1.5,23.727,0,23.727,0,21.889c0-2.041,1.258-2.041,3.147-2.041H5.823V14.443A3.328,3.328,0,0,1,9.2,10.911h9.44V7.516H8.574a24.937,24.937,0,0,1-4.284,3.842,2.768,2.768,0,0,1-1.5.381A2.2,2.2,0,0,1,.472,9.662c0-.831.238-1.073,2.481-3.117,1.414-1.316,3.815-4.329,4.8-5.505A2.548,2.548,0,0,1,9.756,0c1.061,0,2.478.866,2.478,1.9a3.587,3.587,0,0,1-.591,1.7H31.624c1.179,0,3.147,0,3.147,1.941,0,1.974-1.968,1.974-3.147,1.974H23.483v3.395h6.883c1.061,0,3.147,0,3.147,1.971,0,1.837-1.929,1.837-3.147,1.837H23.483v5.128H32.49c1.612,0,3.147,0,3.147,1.834,0,2.045-1.3,2.045-3.147,2.045H23.483v5.435c0,1.526,0,2.843-2.362,2.843C18.84,32,18.644,31.1,18.644,29.162Zm-8.062-13.4v4.089h8.062V14.72H11.567C10.582,14.72,10.582,15.1,10.582,15.759ZM165.3,31.381c-2.712,0-3.382-1.7-3.382-3.254V4.677c0-1.042.2-3.257,3.382-3.257h21.867c2.718,0,3.385,1.7,3.385,3.257V28.126c0,1.073-.2,3.254-3.385,3.254Zm1.416-4.884c0,.555.079.868.866.868h17.267c.786,0,.866-.348.866-.868v-8.59h-19Zm0-20.192v7.62h19V6.3c0-.521-.079-.866-.866-.866H167.582C166.8,5.439,166.716,5.783,166.716,6.3Zm42.011,23.062c-1.277-1.127-4.905-4.5-4.905-9.905,0-5.8,4.2-9.43,5.786-10.631A4.754,4.754,0,0,1,212.021,7.7a1.456,1.456,0,0,1,1.557,1.353c0,.472-.14.725-1.361,1.551-.905.6-5.159,3.6-5.159,8.854s4.253,8.227,5.159,8.854c1.194.8,1.361,1.051,1.361,1.551a1.453,1.453,0,0,1-1.557,1.35C210.885,31.216,209.24,29.814,208.727,29.366Zm43.477.5c0-.5.167-.749,1.359-1.551.908-.624,5.162-3.6,5.162-8.854s-4.254-8.254-5.162-8.854c-1.219-.826-1.359-1.076-1.359-1.551a1.47,1.47,0,0,1,1.557-1.35A4.963,4.963,0,0,1,256.2,8.827c1.587,1.2,5.786,4.826,5.786,10.631,0,5.4-3.632,8.778-4.936,9.905-.509.448-2.154,1.85-3.291,1.85A1.47,1.47,0,0,1,252.2,29.863Zm-29.467-.6c-1.161,0-2.267,0-2.267-1.326,0-1.426.962-1.426,2.267-1.426H226c-.993-1.676-1.786-2.776-1.786-3.379,0-.774.878-1.4,1.786-1.4.624,0,1.079.125,2.041,1.849a6.673,6.673,0,0,1,.85,2.179.917.917,0,0,1-.369.75h2.894V21.088H223.59c-1.164,0-2.27,0-2.27-1.329,0-1.45.935-1.45,2.27-1.45h7.827V16.234h-4.253c-1.277,0-2.212,0-2.243-1.326-2.126,1.024-2.693,1.2-3.287,1.2a1.669,1.669,0,0,1-1.676-1.652c0-.847.741-1.222,1.758-1.649a54.411,54.411,0,0,0,8.906-4.856c1.277-.872,1.7-1.17,2.639-1.17a3.715,3.715,0,0,1,2.154.923,56.008,56.008,0,0,0,9.415,5.329c.768.323,1.277.551,1.277,1.35a1.756,1.756,0,0,1-1.73,1.725,6.626,6.626,0,0,1-3.117-1.122c-.086,1.25-.993,1.25-2.27,1.25h-4.114v2.075h7.913c1.164,0,2.27,0,2.27,1.326,0,1.453-.939,1.453-2.27,1.453h-7.913v5.427h3.6c-.168-.125-.567-.375-.567-.778a13.785,13.785,0,0,1,.881-2.1c.68-1.63.823-1.926,1.728-1.926.768,0,2.014.451,2.014,1.326a6.8,6.8,0,0,1-1.672,3.477H243.5c1.191,0,2.27,0,2.27,1.3,0,1.451-.939,1.451-2.27,1.451Zm9.728-18.909c-1.532,1.048-3.089,2.121-4.765,3.05h10.835c-1.645-.975-3.175-2-4.708-3.05a1.62,1.62,0,0,0-.682-.3A1.373,1.373,0,0,0,232.466,10.357Z" transform="translate(1014.705 101.265)" fill="#f6ab00"/><path d="M86.85,32.609A3.734,3.734,0,0,1,84.833,32a2.172,2.172,0,0,1-1.079-1.8c0-.47.111-.752.835-2.589.14-.356.3-.773.5-1.264,1.5-3.727,1.5-9.043,1.5-12.219V4.884a4.083,4.083,0,0,1,1.207-3.095A4.238,4.238,0,0,1,90.744.746h19.785a4.973,4.973,0,0,1,3.508,1.147,3.47,3.47,0,0,1,1.084,2.573V27.779A4.249,4.249,0,0,1,112.367,32a9.649,9.649,0,0,1-3.607.574,22.21,22.21,0,0,1-5.878-.723,2.148,2.148,0,0,1-1.5-2.166,2.56,2.56,0,0,1,2.739-2.648c.4,0,1.354.1,2.367.206.82.086,1.668.175,1.924.175.93,0,1.032-.239,1.032-.746V21.594H92.062c-.361,3.309-1.445,7.737-2.589,9.435A2.812,2.812,0,0,1,86.85,32.609ZM90.744,1.746a3.263,3.263,0,0,0-2.269.776,3.076,3.076,0,0,0-.887,2.362v9.248c0,3.249,0,8.686-1.572,12.588-.191.487-.355.9-.5,1.261a8.463,8.463,0,0,0-.766,2.223c0,.791,1.127,1.4,2.1,1.4a1.845,1.845,0,0,0,1.78-1.119l.009-.014c.992-1.463,2.147-5.869,2.472-9.428l.042-.454h19.287v6.076c0,1.746-1.529,1.746-2.032,1.746-.308,0-1.105-.083-2.028-.18-.9-.094-1.918-.2-2.263-.2a1.564,1.564,0,0,0-1.739,1.648,1.151,1.151,0,0,0,.849,1.227l.006,0a21.78,21.78,0,0,0,5.527.66,8.739,8.739,0,0,0,3.226-.5,3.237,3.237,0,0,0,2.133-3.295V4.467c0-1.7-1.343-2.72-3.591-2.72ZM21.121,32.5c-2.763,0-2.977-1.385-2.977-3.343V24.227h-15a6.692,6.692,0,0,1-2.377-.265A2.01,2.01,0,0,1-.5,21.889a2.193,2.193,0,0,1,1.155-2.24,6.2,6.2,0,0,1,2.492-.3H5.323V14.443A3.809,3.809,0,0,1,6.8,11.211a4.183,4.183,0,0,1,2.4-.8h8.94V8.016H8.792a27.141,27.141,0,0,1-4.168,3.72l-.045.031-.035.023a3.25,3.25,0,0,1-1.75.45,2.922,2.922,0,0,1-2.021-.772,2.5,2.5,0,0,1-.8-1.806c0-1.076.4-1.444,2.641-3.484a60.183,60.183,0,0,0,4.1-4.673c.252-.307.469-.572.645-.782A3.02,3.02,0,0,1,9.756-.5C11.1-.5,12.734.572,12.734,1.9a3.005,3.005,0,0,1-.274,1.2H31.624a6.3,6.3,0,0,1,2.193.275,2.148,2.148,0,0,1,1.454,2.166A2.176,2.176,0,0,1,33.82,7.736a6.209,6.209,0,0,1-2.2.28H23.983v2.395h6.383a6.19,6.19,0,0,1,2.148.278,2.181,2.181,0,0,1,1.5,2.192,2.057,2.057,0,0,1-1.447,2.078,6.66,6.66,0,0,1-2.2.26H23.983v4.128H32.49a6.772,6.772,0,0,1,2.361.264,2.008,2.008,0,0,1,1.287,2.071,2.194,2.194,0,0,1-1.171,2.243,6.156,6.156,0,0,1-2.476.3H23.983v4.935a4.509,4.509,0,0,1-.36,2.241A2.6,2.6,0,0,1,21.121,32.5ZM3.147,20.348C1.092,20.348.5,20.414.5,21.889c0,1.222.726,1.337,2.647,1.337h16v5.935a3.49,3.49,0,0,0,.29,1.859c.161.225.5.484,1.687.484,1.862,0,1.862-.783,1.862-2.343V23.227H32.49c2.011,0,2.647-.07,2.647-1.545,0-1.219-.726-1.334-2.647-1.334H22.983V14.22h7.383c1.756,0,2.647-.207,2.647-1.337,0-1.225-1.013-1.471-2.647-1.471H22.983V7.016h8.641c1.717,0,2.647-.235,2.647-1.474,0-1.212-.93-1.441-2.647-1.441H10.786l.422-.746A3.127,3.127,0,0,0,11.734,1.9c0-.7-1.151-1.4-1.978-1.4a2.029,2.029,0,0,0-1.618.852l-.006.008c-.173.208-.391.473-.643.78a59.55,59.55,0,0,1-4.2,4.771l0,0C1.037,8.968.972,9.081.972,9.662A1.69,1.69,0,0,0,2.794,11.24a2.261,2.261,0,0,0,1.227-.3l.037-.025A26.551,26.551,0,0,0,8.207,7.177l.148-.16H19.144v4.395H9.2a3.176,3.176,0,0,0-1.8.6,2.847,2.847,0,0,0-1.078,2.43v5.905Zm184.02,11.533H165.3a3.782,3.782,0,0,1-3.095-1.227,3.882,3.882,0,0,1-.787-2.528V4.677A4.234,4.234,0,0,1,162,2.384,3.661,3.661,0,0,1,165.3.92h21.867a3.787,3.787,0,0,1,3.1,1.227,3.887,3.887,0,0,1,.786,2.53V28.126a4.137,4.137,0,0,1-.58,2.3A3.674,3.674,0,0,1,187.167,31.881ZM165.3,1.92c-2.583,0-2.882,1.573-2.882,2.757V28.126a2.922,2.922,0,0,0,.561,1.895,2.848,2.848,0,0,0,2.321.86h21.867c2.557,0,2.885-1.472,2.885-2.754V4.677a2.927,2.927,0,0,0-.56-1.9,2.852,2.852,0,0,0-2.325-.86Zm46.721,29.8c-.907,0-2.126-.664-3.623-1.973a16.435,16.435,0,0,1-3.023-3.456,12.461,12.461,0,0,1-2.053-6.826,12.589,12.589,0,0,1,2.388-7.329,16.869,16.869,0,0,1,3.593-3.7A5.15,5.15,0,0,1,212.021,7.2a1.949,1.949,0,0,1,2.057,1.853c0,.767-.395,1.163-1.581,1.965-1.161.77-4.939,3.645-4.939,8.44,0,3.234,1.755,6.232,4.941,8.442,1.2.808,1.579,1.185,1.579,1.964A1.947,1.947,0,0,1,212.021,31.716Zm0-23.513a4.116,4.116,0,0,0-2.105,1.021l-.007.005a15.855,15.855,0,0,0-3.38,3.477,11.608,11.608,0,0,0-2.207,6.755,11.477,11.477,0,0,0,1.895,6.285,15.466,15.466,0,0,0,2.842,3.245,5.964,5.964,0,0,0,2.963,1.724c.439,0,1.057-.264,1.057-.85,0-.239,0-.371-1.14-1.136l-.006,0c-3.465-2.4-5.374-5.693-5.374-9.265a10.242,10.242,0,0,1,2.348-6.483,13.514,13.514,0,0,1,3.034-2.788c1.138-.769,1.138-.906,1.138-1.134C213.078,8.467,212.46,8.2,212.021,8.2Zm41.74,23.51a1.971,1.971,0,0,1-2.057-1.85c0-.778.375-1.155,1.578-1.965,1.847-1.271,4.943-4.057,4.943-8.44,0-4.8-3.779-7.672-4.937-8.437l0,0c-1.2-.816-1.579-1.193-1.579-1.965a1.971,1.971,0,0,1,2.057-1.85A5,5,0,0,1,256.5,8.425l0,0a16.884,16.884,0,0,1,3.6,3.7,12.589,12.589,0,0,1,2.389,7.329,13.488,13.488,0,0,1-5.109,10.284C256.36,30.639,254.9,31.713,253.761,31.713Zm.081-21.525c1.266.838,5.383,3.973,5.383,9.27a10.212,10.212,0,0,1-2.349,6.474,13.974,13.974,0,0,1-3.029,2.792l0,0c-1.138.766-1.138.9-1.138,1.136,0,.58.63.85,1.057.85a5.987,5.987,0,0,0,2.96-1.725,12.523,12.523,0,0,0,4.767-9.53,11.608,11.608,0,0,0-2.208-6.755A15.868,15.868,0,0,0,255.9,9.227,4.233,4.233,0,0,0,253.761,8.2c-.426,0-1.057.27-1.057.85C252.7,9.28,252.7,9.417,253.842,10.188ZM243.5,29.766H222.738a4.955,4.955,0,0,1-1.751-.2,1.587,1.587,0,0,1-1.015-1.625,1.676,1.676,0,0,1,.942-1.7,4.625,4.625,0,0,1,1.824-.221h2.378l-.212-.346a6.06,6.06,0,0,1-1.188-2.533,1.846,1.846,0,0,1,.981-1.548H223.59a4.959,4.959,0,0,1-1.755-.2,1.59,1.59,0,0,1-1.015-1.628,1.683,1.683,0,0,1,.928-1.725,4.591,4.591,0,0,1,1.841-.226h7.327V16.734h-3.753a4.754,4.754,0,0,1-1.781-.2,1.446,1.446,0,0,1-.841-.887,6.714,6.714,0,0,1-2.908.964,2.17,2.17,0,0,1-2.176-2.152c0-1.243,1.145-1.724,2.065-2.11a53.812,53.812,0,0,0,8.821-4.81l.049-.033c1.265-.864,1.789-1.222,2.869-1.222A4.161,4.161,0,0,1,235.7,7.291a55.931,55.931,0,0,0,9.328,5.281c.775.326,1.58.664,1.58,1.809a2.259,2.259,0,0,1-2.23,2.225,5.907,5.907,0,0,1-2.776-.88,1.463,1.463,0,0,1-.847.817,4.979,4.979,0,0,1-1.764.191h-3.614v1.075h7.413a4.969,4.969,0,0,1,1.754.2,1.587,1.587,0,0,1,1.016,1.625,1.686,1.686,0,0,1-.929,1.727,4.58,4.58,0,0,1-1.84.226h-.776a1.682,1.682,0,0,1,1.02,1.45,7.056,7.056,0,0,1-1.135,2.977h1.6a5,5,0,0,1,1.762.2,1.563,1.563,0,0,1,1.007,1.6,1.684,1.684,0,0,1-.93,1.725A4.586,4.586,0,0,1,243.5,29.766Zm-20.762-2.751c-1.477,0-1.767.074-1.767.926,0,.695.281.826,1.767.826H243.5c1.5,0,1.77-.07,1.77-.951,0-.673-.281-.8-1.77-.8h-9.123V20.588h8.413c1.5,0,1.77-.071,1.77-.953,0-.695-.281-.826-1.77-.826h-8.413V15.734h4.614c1.509,0,1.724-.1,1.771-.784l.053-.769.681.362a6.347,6.347,0,0,0,2.882,1.063,1.248,1.248,0,0,0,1.23-1.225c0-.439-.171-.553-.97-.889a56.917,56.917,0,0,1-9.5-5.378,3.291,3.291,0,0,0-1.871-.836c-.771,0-1.1.222-2.3,1.048l-.052.035a54.829,54.829,0,0,1-8.992,4.9c-1.129.474-1.455.74-1.455,1.189a1.172,1.172,0,0,0,1.176,1.152c.466,0,.921-.113,3.07-1.148l.7-.337.018.775c.017.736.229.837,1.743.837h4.753v3.075H223.59c-1.5,0-1.77.07-1.77.95,0,.7.281.829,1.77.829h8.327v6.427H227.2l1-.876a.431.431,0,0,0,.2-.374,5.236,5.236,0,0,0-.789-1.939c-.887-1.589-1.2-1.589-1.6-1.589-.661,0-1.286.437-1.286.9a7.32,7.32,0,0,0,1.04,2.01c.2.332.436.709.676,1.114l.447.755Zm15.674-1.267c.012.11.213.255.31.326l.055.04.98.73.767-.7a6.368,6.368,0,0,0,1.509-3.107c0-.471-.918-.826-1.514-.826-.557,0-.591,0-1.264,1.612-.039.1-.115.258-.242.524A11.034,11.034,0,0,0,238.412,25.748Zm-3.035.267h2.07a1.1,1.1,0,0,1-.035-.278,5.735,5.735,0,0,1,.7-1.82c.092-.192.188-.391.214-.459l0-.012a5.488,5.488,0,0,1,1-1.857h-3.958Zm-6,0h1.545V21.588h-3.761a5.536,5.536,0,0,1,1.322,1.755l0,.006a6.049,6.049,0,0,1,.91,2.416A1.555,1.555,0,0,1,229.373,26.015Zm-44.524,1.85H167.582c-1.2,0-1.366-.692-1.366-1.368v-9.09h20V26.5A1.2,1.2,0,0,1,184.849,27.864Zm-17.605-1.043a.87.87,0,0,0,.338.043h17.267a.722.722,0,0,0,.334-.048.868.868,0,0,0,.032-.32v-8.09h-18V26.5A1.089,1.089,0,0,0,167.244,26.822Zm-148.1-6.474H10.082V15.759c0-.65,0-1.539,1.485-1.539h7.578Zm-8.062-1h7.062V15.22H11.567a1,1,0,0,0-.453.062,1.914,1.914,0,0,0-.032.478Zm99.357-1.773H91.277l.032-.53c.039-.643.039-2.075.039-2.844V12.523h19.092Zm-18.112-1h17.112V13.523H92.347V14.2C92.347,14.813,92.347,15.837,92.328,16.575Zm93.887-2.15h-20V6.3c0-.374,0-1.366,1.366-1.366h17.267c1.366,0,1.366.992,1.366,1.366Zm-19-1h18V6.3a.883.883,0,0,0-.031-.318.736.736,0,0,0-.335-.048H167.582a.736.736,0,0,0-.335.048.883.883,0,0,0-.031.318Zm73.145.482H225.768l1.69-.937c1.6-.889,3.117-1.925,4.582-2.927l.145-.1a1.757,1.757,0,0,1,.961-.388,1.905,1.905,0,0,1,.95.38l.014.009c1.373.939,2.98,2.025,4.681,3.032Zm-10.83-1h7.235c-1.156-.733-2.242-1.468-3.212-2.132a2.036,2.036,0,0,0-.414-.22,1.055,1.055,0,0,0-.38.206l-.155.106C231.609,11.549,230.59,12.246,229.531,12.907ZM110.439,9.644H91.347V6.1a1.668,1.668,0,0,1,.161-.836A1.174,1.174,0,0,1,92.633,4.7h16.087c.806,0,1.719,0,1.719,1.505Zm-18.092-1h17.092V6.2c0-.372-.062-.451-.062-.452a2.283,2.283,0,0,0-.656-.053H92.633c-.154,0-.239.029-.25.05a1.023,1.023,0,0,0-.036.352Z" transform="translate(1014.705 101.265)" fill="rgba(0,0,0,0)"/></g></svg>