<?xml version="1.0" standalone="no"?>
<!DOCTYPE svg PUBLIC "-//W3C//DTD SVG 20010904//EN"
 "http://www.w3.org/TR/2001/REC-SVG-20010904/DTD/svg10.dtd">
<svg version="1.0" xmlns="http://www.w3.org/2000/svg"
 width="512.000000pt" height="512.000000pt" viewBox="0 0 512.000000 512.000000"
 preserveAspectRatio="xMidYMid meet">

<g transform="translate(0.000000,512.000000) scale(0.100000,-0.100000)"
fill="#000000" stroke="none">
<path d="M1343 4819 c-574 -49 -1046 -394 -1238 -906 -137 -364 -137 -885 0
-1284 49 -141 151 -350 231 -472 206 -315 586 -691 1119 -1108 314 -246 972
-708 1062 -746 48 -20 75 -9 234 93 536 346 1142 810 1509 1158 505 479 741
872 831 1382 19 107 23 165 23 344 0 226 -9 307 -49 470 -135 539 -530 914
-1096 1040 -130 29 -324 42 -464 30 -261 -21 -454 -85 -644 -212 -74 -51 -208
-176 -272 -256 l-34 -43 -55 72 c-143 185 -382 337 -626 398 -166 41 -355 55
-531 40z"/>
</g>
</svg>
